<svg xmlns="http://www.w3.org/2000/svg" version="1.1" width="256px" height="256px" style="shape-rendering:geometricPrecision; text-rendering:geometricPrecision; image-rendering:optimizeQuality; fill-rule:evenodd; clip-rule:evenodd" xmlns:xlink="http://www.w3.org/1999/xlink" viewBox="0 0 256px 256px"><g><path style="opacity:0.948" fill="#000000" d="M23.063 -0.063h50.125v10.25h-49c0.021 -1.709 0 -3.417 -0.063 -5.125a1.932 1.932 0 0 0 -0.375 -0.625l-0.125 -1.625 -0.375 -0.625 -0.188 -2.25Z"/></g><g><path style="opacity:0.943" fill="#000000" d="M91.813 -0.063h49.375v10.25c-16.417 0.042 -32.834 0 -49.25 -0.125a207.795 207.795 0 0 1 -0.125 -10.125Z"/></g><g><path style="opacity:0.941" fill="#000000" d="M159.688 -0.063h49.5v10.25h-49.5v-10.25Z"/></g><g><path style="opacity:0.924" fill="#000000" d="M227.688 -0.063h9.625c0.052 0.281 0.219 0.469 0.5 0.563a5.745 5.745 0 0 0 1.25 0.25c0.152 0.217 0.36 0.343 0.625 0.375l1 0.125a41.071 41.071 0 0 0 4.625 2.5 115.782 115.782 0 0 0 3.75 3.063 25.552 25.552 0 0 0 3.063 3.625c0.225 0.502 0.434 1.002 0.625 1.5a112.733 112.733 0 0 1 1.875 3.125c-0.04 0.617 0.126 1.159 0.5 1.625 0.033 0.469 0.116 0.927 0.25 1.375a1.147 1.147 0 0 0 0.563 0.25v20.875h-10.25c0.021 -5.333 0 -10.667 -0.063 -16a44.525 44.525 0 0 0 -1 -4.125c-0.634 -0.85 -1.134 -1.767 -1.5 -2.75a8.765 8.765 0 0 1 -1.625 -1.875 11.164 11.164 0 0 1 -1.938 -1.688 10.833 10.833 0 0 1 -2.5 -1.375 5.745 5.745 0 0 0 -1.25 -0.25c-0.152 -0.217 -0.36 -0.343 -0.625 -0.375a14.008 14.008 0 0 1 -2.5 -0.5c-1.666 -0.063 -3.333 -0.083 -5 -0.063v-10.25Z"/></g><g><path style="opacity:0.931" fill="#000000" d="M-0.063 62.188v-43.875c0.603 -0.458 0.874 -1.083 0.813 -1.875a0.818 0.818 0 0 1 0.375 -0.375 12.324 12.324 0 0 0 0.625 -2.25l0.375 -0.25a389.816 389.816 0 0 0 1.25 -2.5c0.276 -0.349 0.63 -0.453 1.063 -0.313a1793.063 1793.063 0 0 1 6.375 4.375c0.407 0.308 0.866 0.516 1.375 0.625 0.082 0.238 0.228 0.426 0.438 0.563 0.083 0.25 0.083 0.5 0 0.75 -0.348 0.276 -0.64 0.61 -0.875 1a3.868 3.868 0 0 1 -0.5 1.125l-0.125 0.875a0.818 0.818 0 0 0 -0.375 0.375l-0.125 1.625c-0.219 0.146 -0.344 0.355 -0.375 0.625 -0.063 13.167 -0.083 26.333 -0.063 39.5h-10.25Z"/></g><g><path style="opacity:0.89" fill="#000000" d="M115.438 26.188c5.542 -0.042 11.084 0 16.625 0.125a0.559 0.559 0 0 1 -0.25 0.188 2.418 2.418 0 0 0 0.875 0.563l1.875 0.25c0.074 0.162 0.199 0.267 0.375 0.313l1.125 0.188c7.425 2.298 13.884 6.339 19.375 12.125a28.908 28.908 0 0 0 2.563 3c1.08 1.587 2.163 3.17 3.25 4.75 -0.001 0.453 0.165 0.828 0.5 1.125 0.041 -0.042 0.084 -0.083 0.125 -0.125 0.041 0.292 0.084 0.583 0.125 0.875l0.375 0.25c-0.016 0.495 0.151 0.912 0.5 1.25 0.041 -0.042 0.084 -0.083 0.125 -0.125 0.063 0.331 0.083 0.664 0.063 1 0.203 -0.018 0.349 0.066 0.438 0.25 -0.034 0.639 0.174 1.181 0.625 1.625 -0.004 0.533 0.164 0.992 0.5 1.375 0.022 0.423 0.085 0.839 0.188 1.25a0.449 0.449 0 0 0 0.188 -0.125 10.146 10.146 0 0 1 0.438 2c0.323 0.746 0.469 1.538 0.438 2.375a5.202 5.202 0 0 1 0.5 1 23.837 23.837 0 0 0 0.5 4.5c0.144 2.515 0.06 5.015 -0.25 7.5 -0.041 -0.042 -0.084 -0.083 -0.125 -0.125a36.447 36.447 0 0 1 -0.188 3c-0.431 0.767 -0.619 1.6 -0.563 2.5a2.591 2.591 0 0 0 -0.25 0.75c-0.041 -0.042 -0.084 -0.083 -0.125 -0.125 -0.041 0.542 -0.084 1.083 -0.125 1.625a1.813 1.813 0 0 0 -0.5 0.625c-0.237 0.911 -0.466 1.827 -0.688 2.75a20.794 20.794 0 0 0 -0.438 0.375c-0.268 0.687 -0.475 1.395 -0.625 2.125a1.736 1.736 0 0 1 -0.5 0.375c-0.018 0.416 -0.142 0.791 -0.375 1.125 -0.041 -0.042 -0.084 -0.083 -0.125 -0.125 0.071 0.573 -0.138 0.99 -0.625 1.25a27.796 27.796 0 0 1 -1.25 2.5c-0.126 0.105 -0.273 0.146 -0.438 0.125a1.049 1.049 0 0 1 -0.063 0.5c-7.093 10.167 -16.613 16.417 -28.563 18.75l-3.375 0.25c-2.666 0.498 -5.333 0.498 -8 0l-3.25 -0.25c-0.176 -0.163 -0.385 -0.268 -0.625 -0.313 -0.919 -0.036 -1.794 -0.223 -2.625 -0.563l-1.5 -0.25a416.918 416.918 0 0 0 -4.5 -1.563c-4.446 -1.925 -8.488 -4.488 -12.125 -7.688 -0.169 -0.128 -0.253 -0.295 -0.25 -0.5 -0.336 -0.104 -0.627 -0.292 -0.875 -0.563a94.534 94.534 0 0 1 -3.938 -4.188 101.007 101.007 0 0 0 -2.75 -3.75 3.505 3.505 0 0 0 -0.188 -0.625 8.209 8.209 0 0 1 -0.875 -1.25c-0.119 -0.193 -0.161 -0.402 -0.125 -0.625 -0.165 0.021 -0.311 -0.02 -0.438 -0.125 -0.067 -0.498 -0.276 -0.914 -0.625 -1.25a3.117 3.117 0 0 1 -0.063 -0.875c-0.165 0.021 -0.311 -0.02 -0.438 -0.125a3.741 3.741 0 0 1 -0.25 -1.125l-0.125 0.125c-0.239 -0.42 -0.364 -0.879 -0.375 -1.375a1.871 1.871 0 0 0 -0.438 -0.375 106.703 106.703 0 0 1 -0.688 -2.75 2.844 2.844 0 0 0 -0.5 -0.625c0.019 -0.722 -0.147 -1.389 -0.5 -2 0.008 -1.089 -0.201 -2.131 -0.625 -3.125 0.03 -1.333 -0.137 -2.625 -0.5 -3.875a45.81 45.81 0 0 1 0.25 -7.875l0.125 0.125 0.125 -2.625c0.446 -0.901 0.654 -1.859 0.625 -2.875a40 40 0 0 0 1.625 -5.25c0.477 -0.33 0.685 -0.788 0.625 -1.375 0.306 -0.463 0.535 -0.963 0.688 -1.5 0.103 -0.111 0.228 -0.152 0.375 -0.125 -0.02 -0.295 0 -0.586 0.063 -0.875 0.357 -0.338 0.586 -0.754 0.688 -1.25 0.103 -0.111 0.228 -0.152 0.375 -0.125 -0.036 -0.224 0.006 -0.432 0.125 -0.625 3.398 -5.547 7.607 -10.193 12.625 -13.938a3233.489 3233.489 0 0 1 3.875 -2.5c0.501 -0.291 1.043 -0.52 1.625 -0.688 1.556 -0.965 3.222 -1.694 5 -2.188a0.456 0.456 0 0 0 0.125 -0.188 29.352 29.352 0 0 1 3 -0.813 1.55 1.55 0 0 0 0.5 -0.313c1.025 -0.032 1.983 -0.282 2.875 -0.75 -0.187 -0.08 -0.312 -0.205 -0.375 -0.375Zm6.375 9.75a122.226 122.226 0 0 1 7.75 0.313c0.263 0.201 0.554 0.347 0.875 0.438l1.75 0.25c8.219 2.223 14.739 6.973 19.563 14.25a38.865 38.865 0 0 0 1.25 2.5c0.345 0.283 0.511 0.658 0.5 1.125 0.126 0.295 0.294 0.462 0.5 0.5 0.207 0.666 0.416 1.333 0.625 2 0.077 0.282 0.245 0.49 0.5 0.625 -0.034 0.577 0.133 1.077 0.5 1.5 0.041 0.542 0.084 1.083 0.125 1.625 0.041 -0.042 0.084 -0.083 0.125 -0.125a2.379 2.379 0 0 0 0.375 0.625c0.041 0.708 0.084 1.417 0.125 2.125l0.375 0.625c0.104 3.209 0.084 6.418 -0.063 9.625 -0.321 0.876 -0.468 1.792 -0.438 2.75 -0.475 0.661 -0.704 1.411 -0.688 2.25 -0.163 0.074 -0.266 0.199 -0.313 0.375 0.07 0.632 -0.138 1.132 -0.625 1.5 0.014 0.57 -0.154 1.07 -0.5 1.5 0.044 0.501 -0.144 0.876 -0.563 1.125 -0.57 1.492 -1.363 2.888 -2.375 4.188 0.098 0.134 0.076 0.28 -0.063 0.438 -1.326 1.888 -2.846 3.596 -4.563 5.125 -0.111 0.103 -0.152 0.228 -0.125 0.375 -0.375 -0.042 -0.541 0.125 -0.5 0.5 -0.406 -0.026 -0.656 0.162 -0.75 0.563l-3 2.25a74.064 74.064 0 0 1 -4.625 2.5 25.478 25.478 0 0 1 -2.5 0.875c-0.084 0.083 -0.166 0.167 -0.25 0.25a17.485 17.485 0 0 1 -2.75 0.625c-0.892 0.462 -1.85 0.67 -2.875 0.625 -0.328 0.117 -0.661 0.222 -1 0.313a78.848 78.848 0 0 1 -8.875 0c-0.97 -0.311 -1.97 -0.457 -3 -0.438a2.714 2.714 0 0 0 -0.875 -0.5 18.218 18.218 0 0 1 -2.75 -0.625l-0.25 -0.25a35.431 35.431 0 0 1 -4.375 -1.75c-5.052 -2.825 -9.177 -6.679 -12.375 -11.563 -0.265 -0.683 -0.639 -1.308 -1.125 -1.875a8.163 8.163 0 0 1 -0.75 -1.75 2.486 2.486 0 0 0 -0.438 -0.5 26.147 26.147 0 0 1 -0.688 -2.125c-0.417 -0.456 -0.605 -0.998 -0.563 -1.625l-0.375 -0.375c0.073 -0.808 -0.135 -1.517 -0.625 -2.125l-0.125 -1.875a4.262 4.262 0 0 0 -0.375 -0.75 185.22 185.22 0 0 1 0 -9.625l0.375 -0.625 0.125 -2a3.261 3.261 0 0 1 0.438 -0.625c0.133 -1.035 0.362 -2.035 0.688 -3 0.133 -0.117 0.279 -0.242 0.438 -0.375 0.04 -0.604 0.228 -1.146 0.563 -1.625 0.062 -0.247 0.083 -0.497 0.063 -0.75 0.262 -0.008 0.449 -0.133 0.563 -0.375 0.022 -0.443 0.189 -0.818 0.5 -1.125 0.062 -0.247 0.083 -0.497 0.063 -0.75 0.147 0.027 0.272 -0.014 0.375 -0.125 0.367 -0.777 0.825 -1.485 1.375 -2.125a0.456 0.456 0 0 0 -0.125 -0.188c2.697 -3.793 5.968 -6.98 9.813 -9.563a77.296 77.296 0 0 1 4.813 -2.563 18.499 18.499 0 0 1 2.375 -0.688 2.486 2.486 0 0 0 0.5 -0.438c1.128 -0.342 2.295 -0.551 3.5 -0.625a6.472 6.472 0 0 0 0.875 -0.5l3.375 -0.125c0.195 -0.026 0.361 -0.089 0.5 -0.188Z"/></g><g><path style="opacity:0.943" fill="#000000" d="M255.938 57.813v49.375h-10.25c-0.021 -16.417 0 -32.833 0.063 -49.25a208.979 208.979 0 0 1 10.188 -0.125Z"/></g><g><path style="opacity:0.945" fill="#000000" d="M-0.063 80.688h10.25v49.25h-10.25v-49.25Z"/></g><g><path style="opacity:0.899" fill="#000000" d="M215.188 193.188a51.873 51.873 0 0 1 -0.875 1.75 54.495 54.495 0 0 0 -1.375 1.813l0.25 0.25c0.874 -0.481 1.79 -0.94 2.75 -1.375 1.291 -0.084 2.584 -0.084 3.875 0 0.871 0.39 1.663 0.911 2.375 1.563 2.809 2.731 5.725 5.44 8.75 8.125 0.314 0.229 0.522 0.52 0.625 0.875 0.336 0.105 0.627 0.292 0.875 0.563a112.357 112.357 0 0 1 5.5 5.438 35.339 35.339 0 0 1 1.313 2.5c0.039 -0.101 0.101 -0.184 0.188 -0.25 0.166 2.375 0.166 4.75 0 7.125 -0.074 -0.026 -0.136 -0.068 -0.188 -0.125a37.9 37.9 0 0 1 -2.438 4.375c-0.319 0.263 -0.611 0.554 -0.875 0.875 -1.116 0.953 -2.325 1.744 -3.625 2.375 -0.334 0.166 -0.334 0.334 0 0.5a64.223 64.223 0 0 1 -8 0c0.136 -0.139 0.136 -0.264 0 -0.375 -0.998 -0.579 -1.998 -1.163 -3 -1.75 -3.334 -3.08 -6.709 -6.205 -10.125 -9.375 -0.111 -0.102 -0.152 -0.228 -0.125 -0.375 -0.147 0.028 -0.273 -0.014 -0.375 -0.125a63.773 63.773 0 0 0 -4.313 -3.875c-0.656 -0.818 -1.219 -1.776 -1.688 -2.875a16.102 16.102 0 0 1 0 -4c0.361 -0.431 0.549 -0.931 0.563 -1.5a3.969 3.969 0 0 0 0.813 -1c-0.104 -0.041 -0.209 -0.084 -0.313 -0.125 -1.587 0.951 -3.15 1.951 -4.688 3 -0.459 0.034 -0.834 0.221 -1.125 0.563 -0.306 0.036 -0.599 0.12 -0.875 0.25l0.125 0.125c-0.438 0.204 -0.895 0.349 -1.375 0.438 -0.06 0.122 -0.142 0.226 -0.25 0.313 -0.586 -0.033 -1.086 0.155 -1.5 0.563a6.593 6.593 0 0 1 -1.25 0.188c-0.166 0.125 -0.334 0.25 -0.5 0.375 -0.541 0.041 -1.084 0.084 -1.625 0.125 -0.16 0.206 -0.369 0.351 -0.625 0.438 -2.065 0.19 -4.128 0.399 -6.188 0.625 -2.209 -0.21 -4.438 -0.419 -6.688 -0.625 -0.256 -0.086 -0.465 -0.231 -0.625 -0.438 -0.584 -0.041 -1.166 -0.084 -1.75 -0.125 -0.125 -0.104 -0.25 -0.209 -0.375 -0.313 -0.5 -0.084 -1 -0.166 -1.5 -0.25 -0.207 -0.104 -0.375 -0.249 -0.5 -0.438 -0.525 0.025 -0.983 -0.121 -1.375 -0.438 -0.584 0 -1.042 -0.229 -1.375 -0.688 -0.657 -0.384 -1.365 -0.675 -2.125 -0.875l0.125 -0.125c-0.67 -0.339 -1.336 -0.671 -2 -1l0.125 -0.125c-0.583 -0.331 -1.165 -0.665 -1.75 -1l0.125 -0.125c-0.541 -0.084 -1.084 -0.084 -1.625 0l0.125 0.125c-0.686 0.237 -1.394 0.362 -2.125 0.375 -0.675 0.44 -1.425 0.647 -2.25 0.625l0.125 0.125c-0.819 0.214 -1.653 0.359 -2.5 0.438 -0.176 0.092 -0.343 0.198 -0.5 0.313 -0.541 0.041 -1.084 0.084 -1.625 0.125 -0.177 0.221 -0.47 0.388 -0.875 0.5 -0.709 0.041 -1.416 0.084 -2.125 0.125 -0.209 0.125 -0.416 0.25 -0.625 0.375 -0.666 0.041 -1.334 0.084 -2 0.125a2.917 2.917 0 0 1 -0.875 0.438c-0.914 0.104 -1.83 0.166 -2.75 0.188a4.203 4.203 0 0 1 -0.75 0.375c-0.959 0.041 -1.916 0.084 -2.875 0.125a3.014 3.014 0 0 1 -1 0.438c-1.248 0.104 -2.498 0.166 -3.75 0.188a7.984 7.984 0 0 1 -1.375 0.375c-1.75 0.041 -3.5 0.084 -5.25 0.125 -0.166 0.041 -0.334 0.084 -0.5 0.125l0.125 0.125c-5.776 0.416 -11.568 0.416 -17.375 0 0.042 -0.041 0.083 -0.084 0.125 -0.125 -0.167 -0.041 -0.333 -0.084 -0.5 -0.125 -1.792 -0.041 -3.583 -0.084 -5.375 -0.125a9.578 9.578 0 0 1 -1.25 -0.375c-1.556 0.009 -3.098 -0.116 -4.625 -0.375 0.042 -0.041 0.083 -0.084 0.125 -0.125 -0.125 -0.041 -0.25 -0.084 -0.375 -0.125 -0.958 -0.041 -1.917 -0.084 -2.875 -0.125a3.67 3.67 0 0 0 -0.625 -0.313c-0.875 -0.084 -1.75 -0.166 -2.625 -0.25a2.916 2.916 0 0 1 -0.875 -0.438c-0.667 -0.041 -1.333 -0.084 -2 -0.125a4.008 4.008 0 0 0 -0.5 -0.313c-0.75 -0.084 -1.5 -0.166 -2.25 -0.25a3.333 3.333 0 0 1 -0.75 -0.438c-0.583 -0.041 -1.167 -0.084 -1.75 -0.125a4.008 4.008 0 0 0 -0.5 -0.313c-0.583 -0.084 -1.167 -0.166 -1.75 -0.25 -0.61 -0.297 -1.256 -0.464 -1.938 -0.5a4.17 4.17 0 0 1 -0.813 -0.438 14.874 14.874 0 0 1 -3.125 -0.625c-0.987 -0.451 -2.029 -0.744 -3.125 -0.875 0.125 -0.041 0.25 -0.084 0.375 -0.125 -0.333 -0.041 -0.667 -0.084 -1 -0.125 -0.277 -0.291 -0.589 -0.396 -0.938 -0.313 -0.595 -0.347 -1.241 -0.535 -1.938 -0.563 0.042 -0.041 0.083 -0.084 0.125 -0.125 -0.309 -0.014 -0.559 -0.139 -0.75 -0.375 -0.871 -0.206 -1.746 -0.415 -2.625 -0.625 0.042 -0.041 0.083 -0.084 0.125 -0.125 -0.223 -0.025 -0.39 -0.129 -0.5 -0.313a5.362 5.362 0 0 0 -1.125 -0.188c-0.396 -0.319 -0.855 -0.506 -1.375 -0.563 -0.208 -0.104 -0.374 -0.249 -0.5 -0.438 -0.484 0.019 -0.901 -0.128 -1.25 -0.438 -0.594 -0.043 -1.094 -0.273 -1.5 -0.688 -0.486 -0.007 -0.903 -0.174 -1.25 -0.5 -0.562 0.001 -1.02 -0.207 -1.375 -0.625a21.075 21.075 0 0 1 -2 -0.688c-0.259 -0.4 -0.634 -0.609 -1.125 -0.625a4.58 4.58 0 0 1 -1.25 -0.938 13.6 13.6 0 0 0 -1.375 -0.688 65.993 65.993 0 0 1 -2.875 -2.25c-0.169 -0.128 -0.253 -0.295 -0.25 -0.5a0.619 0.619 0 0 1 -0.375 -0.063 4.184 4.184 0 0 1 -0.813 -0.938 8.292 8.292 0 0 1 -0.938 -0.75 0.857 0.857 0 0 1 -0.125 -0.5c-0.147 0.028 -0.272 -0.014 -0.375 -0.125a74.983 74.983 0 0 0 -2.188 -2.75 2.519 2.519 0 0 1 -0.188 -0.75c-0.262 -0.007 -0.449 -0.133 -0.563 -0.375 -0.425 -0.964 -0.946 -1.859 -1.563 -2.688a7.111 7.111 0 0 1 -0.188 -0.813 51.624 51.624 0 0 1 -1.313 -2.875 34.163 34.163 0 0 0 -0.688 -2.125c-0.108 -0.989 -0.317 -1.948 -0.625 -2.875 -0.027 0.235 -0.11 0.444 -0.25 0.625a312.375 312.375 0 0 1 0 -12.5c0.131 0.14 0.214 0.307 0.25 0.5a11.565 11.565 0 0 0 0.625 -2.625 10.611 10.611 0 0 1 1.063 -2.688 0.449 0.449 0 0 1 -0.125 -0.188c0.484 -1.105 1.005 -2.188 1.563 -3.25 0.007 -0.42 0.132 -0.795 0.375 -1.125 0.042 0.041 0.083 0.084 0.125 0.125a3.218 3.218 0 0 0 0.25 -1c0.373 -0.212 0.539 -0.545 0.5 -1 0.447 -0.29 0.676 -0.708 0.688 -1.25 0.103 -0.111 0.228 -0.152 0.375 -0.125 0.112 -0.784 0.466 -1.45 1.063 -2 0.002 -0.351 0.127 -0.642 0.375 -0.875 3.327 -5.349 7.473 -10.244 12.438 -14.688 0.345 -0.033 0.554 -0.22 0.625 -0.563a27.463 27.463 0 0 1 2.5 -1.875 0.915 0.915 0 0 0 0.25 -0.375 11.666 11.666 0 0 0 1.25 -0.625c-0.003 -0.205 0.081 -0.372 0.25 -0.5 0.945 -0.67 1.945 -1.274 3 -1.813a1.884 1.884 0 0 1 0.375 -0.438c0.456 -0.307 0.956 -0.536 1.5 -0.688 0.11 -0.198 0.276 -0.323 0.5 -0.375l-0.125 -0.125a13.86 13.86 0 0 1 1.625 -0.625c0.126 -0.188 0.292 -0.334 0.5 -0.438a45.497 45.497 0 0 0 1.875 -0.938l0.625 -0.125 -0.125 -0.125a6.839 6.839 0 0 0 1.875 -0.875 21.631 21.631 0 0 1 2.125 -0.625c0.429 -0.477 0.971 -0.686 1.625 -0.625l-0.125 -0.125c0.504 -0.251 1.046 -0.376 1.625 -0.375 0.527 -0.477 1.152 -0.685 1.875 -0.625l-0.125 -0.125a10.172 10.172 0 0 1 2 -0.438 1.55 1.55 0 0 1 0.5 -0.313 6.675 6.675 0 0 0 2.25 -0.563c0.705 -0.104 1.413 -0.166 2.125 -0.188a4.262 4.262 0 0 1 0.75 -0.375c1.001 -0.096 2.001 -0.2 3 -0.313a4.761 4.761 0 0 0 0.875 -0.313c17.542 -0.083 35.084 -0.083 52.625 0a6.716 6.716 0 0 0 1.125 0.313c0.956 0.116 1.915 0.22 2.875 0.313 0.265 0.102 0.515 0.227 0.75 0.375l2.125 0.125c0.158 0.115 0.324 0.22 0.5 0.313 0.846 0.037 1.639 0.246 2.375 0.625a15.127 15.127 0 0 1 3 0.688c0.534 0.457 1.159 0.686 1.875 0.688 0.154 0.098 0.32 0.16 0.5 0.188 -0.041 0.042 -0.084 0.083 -0.125 0.125 0.639 -0.034 1.181 0.174 1.625 0.625 0.814 0.153 1.522 0.361 2.125 0.625 1.344 0.517 2.553 1.122 3.625 1.813 0.499 0.096 0.915 0.325 1.25 0.688 0.552 0.214 1.094 0.443 1.625 0.688a99.612 99.612 0 0 1 6.875 4.5c4.98 3.834 9.459 8.291 13.438 13.375 0.212 0.479 0.443 0.938 0.688 1.375 0.273 -0.028 0.481 0.077 0.625 0.313l-0.125 0.125c0.44 0.274 0.669 0.669 0.688 1.188 0.166 0.084 0.334 0.166 0.5 0.25 -0.07 0.361 0.076 0.652 0.438 0.875 0.119 0.194 0.161 0.401 0.125 0.625 0.147 -0.028 0.273 0.014 0.375 0.125 0.084 0.209 0.166 0.416 0.25 0.625 0.375 0.084 0.75 0.166 1.125 0.25 2.478 1.05 4.769 2.382 6.875 4 0.111 0.102 0.152 0.228 0.125 0.375 0.344 0.154 0.677 0.341 1 0.563a69.406 69.406 0 0 1 5.375 5.688c0.355 0.517 0.646 1.06 0.875 1.625h0.375c0.729 1.19 1.354 2.44 1.875 3.75 0.315 0.245 0.46 0.578 0.438 1 0.209 -0.105 0.229 -0.043 0.063 0.188 0.282 0.605 0.574 1.209 0.875 1.813 0.102 0.369 0.165 0.744 0.188 1.125l0.125 -0.125a8.164 8.164 0 0 1 0.375 2.125c0.236 0.39 0.404 0.806 0.5 1.25 0.041 0.709 0.084 1.416 0.125 2.125l0.125 -0.125c0.018 0.318 0.101 0.61 0.25 0.875 0.104 2.335 0.084 4.668 -0.063 7 -0.31 1.103 -0.497 2.228 -0.563 3.375 -0.379 0.642 -0.545 1.35 -0.5 2.125 -0.32 0.532 -0.507 1.115 -0.563 1.75 -0.338 0.598 -0.629 1.222 -0.875 1.875 -0.101 0.284 -0.164 0.575 -0.188 0.875a6.191 6.191 0 0 0 -0.938 1.5Zm-111.75 -67.375c13.333 -0.021 26.666 0 40 0.063 2.121 0.151 4.246 0.235 6.375 0.25 0.125 0.041 0.25 0.084 0.375 0.125l-0.125 0.125c1.067 0.24 2.151 0.365 3.25 0.375 0.209 0.125 0.416 0.25 0.625 0.375 0.625 0.041 1.25 0.084 1.875 0.125 0.2 0.155 0.409 0.3 0.625 0.438 0.5 0.084 1 0.166 1.5 0.25 0.529 0.318 1.113 0.463 1.75 0.438 0.125 0.189 0.292 0.334 0.5 0.438a30.026 30.026 0 0 1 2.5 0.688c0.125 0.189 0.292 0.334 0.5 0.438 8.455 3.26 15.705 8.428 21.75 15.5 -1.239 0.204 -2.489 0.307 -3.75 0.313a52.879 52.879 0 0 0 -6 1.5 124.265 124.265 0 0 0 -4.625 2.25 11.503 11.503 0 0 1 -2.625 1.813c-0.111 0.102 -0.152 0.228 -0.125 0.375 -0.403 0.117 -0.777 0.305 -1.125 0.563 -3.514 3.169 -6.41 6.731 -8.688 10.688 -0.176 0.559 -0.384 1.101 -0.625 1.625 -0.08 0.225 -0.225 0.393 -0.438 0.5 -0.056 0.52 -0.244 0.979 -0.563 1.375 0.061 0.654 -0.147 1.195 -0.625 1.625 0.019 0.724 -0.147 1.39 -0.5 2 0.08 0.96 -0.129 1.835 -0.625 2.625 -0.003 1.875 -0.106 3.729 -0.313 5.563 0.206 1.834 0.31 3.688 0.313 5.563 0.166 0.25 0.334 0.5 0.5 0.75 0.041 0.666 0.084 1.334 0.125 2 0.36 0.51 0.526 1.094 0.5 1.75 0.469 0.48 0.676 1.063 0.625 1.75 0.376 0.369 0.544 0.826 0.5 1.375l0.125 -0.125a0.922 0.922 0 0 0 0.25 0.375c0.291 0.709 0.584 1.416 0.875 2.125 0.417 0.564 0.814 1.147 1.188 1.75 -0.394 -0.015 -0.769 0.13 -1.125 0.438 -0.588 0.021 -1.171 0.084 -1.75 0.188 -0.256 0.086 -0.465 0.231 -0.625 0.438 -0.625 0.041 -1.25 0.084 -1.875 0.125 -0.229 0.094 -0.438 0.219 -0.625 0.375 -0.67 0.021 -1.337 0.084 -2 0.188 -0.424 0.059 -0.715 0.205 -0.875 0.438 -0.709 0.041 -1.416 0.084 -2.125 0.125 -0.229 0.094 -0.438 0.219 -0.625 0.375 -1.195 -0.014 -2.361 0.111 -3.5 0.375l0.125 0.125a22.654 22.654 0 0 1 -3.125 0.25c-0.354 0.087 -0.686 0.212 -1 0.375 -1.375 0.041 -2.75 0.084 -4.125 0.125 -0.728 0.115 -1.353 0.282 -1.875 0.5 -2.795 0.024 -5.586 0.086 -8.375 0.188a3.499 3.499 0 0 1 -0.438 -0.125c-1.292 0.334 -2.583 0.334 -3.875 0a4.289 4.289 0 0 1 -0.875 0.125c-2.811 -0.096 -5.624 -0.159 -8.438 -0.188 -0.485 -0.225 -1.069 -0.391 -1.75 -0.5 -1.458 -0.041 -2.917 -0.084 -4.375 -0.125a4.525 4.525 0 0 0 -1 -0.375c-0.917 -0.041 -1.833 -0.084 -2.75 -0.125 -0.427 -0.154 -0.844 -0.321 -1.25 -0.5a45.2 45.2 0 0 1 -5.375 -0.625 2.916 2.916 0 0 0 -0.875 -0.438c-0.708 -0.084 -1.417 -0.166 -2.125 -0.25a4.008 4.008 0 0 1 -0.5 -0.313c-0.583 -0.041 -1.167 -0.084 -1.75 -0.125a3.333 3.333 0 0 0 -0.75 -0.438c-0.583 -0.084 -1.167 -0.166 -1.75 -0.25a4.008 4.008 0 0 1 -0.5 -0.313c-0.5 -0.041 -1 -0.084 -1.5 -0.125a1.557 1.557 0 0 0 -0.625 -0.5 37.1 37.1 0 0 1 -3.25 -0.625c-0.225 -0.04 -0.267 -0.122 -0.125 -0.25a65.567 65.567 0 0 1 -3.5 -0.875 30.405 30.405 0 0 0 -3.125 -1.125 0.449 0.449 0 0 1 -0.125 -0.188 6.597 6.597 0 0 0 -1.25 -0.188c0.042 -0.041 0.083 -0.084 0.125 -0.125a4.943 4.943 0 0 0 -1.375 -0.375c-0.257 -0.086 -0.465 -0.231 -0.625 -0.438 -0.549 -0.074 -1.049 -0.261 -1.5 -0.563 -0.561 0.044 -1.019 -0.144 -1.375 -0.563a25.352 25.352 0 0 0 -2.25 -0.688 1.884 1.884 0 0 1 -0.375 -0.438c-0.704 -0.147 -1.371 -0.376 -2 -0.688 -0.301 -0.419 -0.718 -0.647 -1.25 -0.688a4.58 4.58 0 0 1 -1.25 -0.938c-0.649 -0.224 -1.191 -0.599 -1.625 -1.125a9.435 9.435 0 0 1 -2.25 -1.813c-0.881 -1.104 -1.756 -2.188 -2.625 -3.25a2.519 2.519 0 0 1 -0.188 -0.75c-0.46 -0.225 -0.689 -0.6 -0.688 -1.125 -0.103 -0.111 -0.228 -0.152 -0.375 -0.125 0.038 -0.302 -0.003 -0.595 -0.125 -0.875a13.335 13.335 0 0 0 -0.938 -1.875l-0.125 -1.25c-0.042 0.041 -0.083 0.084 -0.125 0.125 -0.152 -0.313 -0.194 -0.646 -0.125 -1 -0.042 0.084 -0.083 0.166 -0.125 0.25l-0.125 -1.625c-0.083 -0.166 -0.167 -0.334 -0.25 -0.5 -0.083 -2 -0.083 -4 0 -6 0.265 -1.387 0.557 -2.721 0.875 -4 0.378 -0.468 0.587 -1.01 0.625 -1.625 0.347 -0.29 0.534 -0.665 0.563 -1.125 0.315 -0.245 0.461 -0.578 0.438 -1 0.087 -0.191 0.233 -0.316 0.438 -0.375 0.122 -0.324 0.164 -0.656 0.125 -1 0.165 0.021 0.311 -0.02 0.438 -0.125 3.222 -6.796 7.785 -12.629 13.688 -17.5 0.111 -0.102 0.152 -0.228 0.125 -0.375 0.285 -0.014 0.535 -0.117 0.75 -0.313 -0.042 -0.041 -0.083 -0.084 -0.125 -0.125a33.065 33.065 0 0 0 3.875 -2.875c0.919 -0.504 1.836 -1.004 2.75 -1.5 -0.042 -0.041 -0.083 -0.084 -0.125 -0.125a15.236 15.236 0 0 0 2.75 -1.5c0.593 -0.195 1.176 -0.424 1.75 -0.688 0.208 -0.104 0.374 -0.249 0.5 -0.438a12.394 12.394 0 0 1 2.5 -0.813v-0.375c0.559 0.077 1.059 -0.048 1.5 -0.375 0.417 -0.084 0.833 -0.166 1.25 -0.25 0.208 -0.104 0.374 -0.249 0.5 -0.438 0.617 0.04 1.159 -0.126 1.625 -0.5 0.546 -0.021 1.088 -0.084 1.625 -0.188a8.332 8.332 0 0 0 0.625 -0.438c1.546 -0.367 3.129 -0.598 4.75 -0.688a6.149 6.149 0 0 0 1.125 -0.438c1.958 -0.041 3.917 -0.084 5.875 -0.125 0.115 -0.035 0.198 -0.098 0.25 -0.188Zm82.25 30c2.329 0.013 4.661 0.241 7 0.688l0.25 0.25c0.801 0.171 1.594 0.38 2.375 0.625 0.875 0.455 1.75 0.934 2.625 1.438 -10.259 10.363 -20.488 20.738 -30.688 31.125 -0.234 -0.289 -0.359 -0.621 -0.375 -1 -0.485 -0.259 -0.651 -0.634 -0.5 -1.125a1.75 1.75 0 0 0 -0.5 -0.375c-0.269 -0.828 -0.499 -1.661 -0.688 -2.5 -0.206 -0.16 -0.351 -0.369 -0.438 -0.625 0.045 -0.775 -0.121 -1.482 -0.5 -2.125 -0.084 -2.666 -0.084 -5.334 0 -8 0.345 -0.7 0.512 -1.45 0.5 -2.25 0.166 -0.25 0.334 -0.5 0.5 -0.75 0.12 -0.819 0.307 -1.61 0.563 -2.375h0.375c0.144 -0.578 0.372 -1.119 0.688 -1.625 0.061 -0.204 0.083 -0.412 0.063 -0.625h0.375c0.135 -0.486 0.344 -0.945 0.625 -1.375 0.748 -0.895 1.476 -1.811 2.188 -2.75a44.3 44.3 0 0 1 5.063 -3.875c0.651 -0.409 1.401 -0.784 2.25 -1.125 1.005 -0.233 1.88 -0.545 2.625 -0.938 0.795 -0.126 1.587 -0.271 2.375 -0.438 1.175 -0.08 2.257 -0.164 3.25 -0.25Zm19.75 9.875c0.165 -0.021 0.311 0.02 0.438 0.125 0.271 0.399 0.541 0.794 0.813 1.188l-0.125 0.125c0.214 0.324 0.443 0.636 0.688 0.938 0.506 1.254 1.006 2.504 1.5 3.75 0.041 0.459 0.084 0.916 0.125 1.375 0.102 0.446 0.27 0.78 0.5 1 0.084 2.625 0.084 5.25 0 7.875 -0.461 0.755 -0.69 1.589 -0.688 2.5a441.484 441.484 0 0 1 -1.438 3.75c-0.305 0.314 -0.492 0.689 -0.563 1.125 -0.466 0.631 -0.924 1.256 -1.375 1.875 -0.116 0.149 -0.158 0.315 -0.125 0.5 -0.41 0.076 -0.66 0.326 -0.75 0.75 -1.866 2.201 -3.991 4.076 -6.375 5.625 -0.487 0.058 -0.863 0.286 -1.125 0.688 -0.383 -0.014 -0.674 0.133 -0.875 0.438 -0.636 0.031 -1.177 0.26 -1.625 0.688 -0.578 -0.034 -1.077 0.133 -1.5 0.5 -0.629 0.021 -1.254 0.084 -1.875 0.188 -0.374 0.175 -0.749 0.321 -1.125 0.438 -1.959 0.084 -3.916 0.084 -5.875 0 -0.321 -0.196 -0.738 -0.362 -1.25 -0.5 -0.666 -0.041 -1.334 -0.084 -2 -0.125 -0.422 -0.367 -0.922 -0.534 -1.5 -0.5a38.029 38.029 0 0 0 -2.75 -1.125c-0.824 -0.57 -1.657 -1.154 -2.5 -1.75 0.158 -0.115 0.324 -0.22 0.5 -0.313 10.121 -10.205 20.288 -20.371 30.5 -30.5 0.102 -0.228 0.228 -0.436 0.375 -0.625Zm13 41c3.848 3.639 7.681 7.346 11.5 11.125 0.365 0.696 0.323 1.364 -0.125 2 -0.4 0.366 -0.859 0.45 -1.375 0.25 -3.881 -3.715 -7.756 -7.424 -11.625 -11.125 -0.116 -0.149 -0.158 -0.315 -0.125 -0.5 0.319 -0.007 0.506 -0.174 0.563 -0.5 0.334 -0.09 0.521 -0.299 0.563 -0.625 0.345 -0.058 0.552 -0.266 0.625 -0.625Z"/></g><g><path style="opacity:0.94" fill="#000000" d="M255.938 125.688v49.5h-10.25v-49.5h10.25Z"/></g><g><path style="opacity:0.948" fill="#000000" d="M-0.063 148.563h10.25v49.125h-10.25v-49.125Z"/></g><g><path style="opacity:0.004" fill="#000000" d="M215.188 193.188c0.166 0.084 0.166 0.084 0 0Z"/></g><g><path style="opacity:0.934" fill="#000000" d="M255.938 193.688v44c-0.125 -0.011 -0.229 0.031 -0.313 0.125 -0.338 0.486 -0.505 1.028 -0.5 1.625a0.825 0.825 0 0 1 -0.375 0.375c0.026 0.536 -0.141 0.995 -0.5 1.375 -0.041 0.291 -0.084 0.584 -0.125 0.875 -0.345 0.125 -0.511 0.375 -0.5 0.75 -0.525 0.625 -0.838 1.333 -0.938 2.125 -0.568 0.056 -1.109 -0.028 -1.625 -0.25 -2.172 -1.466 -4.339 -2.925 -6.5 -4.375 -0.66 -0.119 -1.077 -0.494 -1.25 -1.125 0.529 -0.764 0.966 -1.597 1.313 -2.5 0.041 -0.291 0.084 -0.584 0.125 -0.875a0.825 0.825 0 0 0 0.375 -0.375c0.041 -0.541 0.084 -1.084 0.125 -1.625 0.217 -0.152 0.343 -0.36 0.375 -0.625 0.063 -13.166 0.084 -26.334 0.063 -39.5h10.25Z"/></g><g><path style="opacity:0.916" fill="#000000" d="M-0.063 216.313c3.405 -0.041 6.801 0.001 10.188 0.125l0.125 16.25a44.407 44.407 0 0 0 1 4.125 11.053 11.053 0 0 1 1.5 2.75 8.781 8.781 0 0 1 1.625 1.875 11.178 11.178 0 0 1 1.938 1.688 10.821 10.821 0 0 1 2.5 1.375 5.74 5.74 0 0 0 1.25 0.25c0.152 0.217 0.36 0.343 0.625 0.375 0.848 0.09 1.681 0.258 2.5 0.5 1.666 0.063 3.333 0.084 5 0.063v10.25h-9.625c-0.052 -0.281 -0.219 -0.469 -0.5 -0.563a5.74 5.74 0 0 0 -1.25 -0.25c-0.152 -0.217 -0.36 -0.343 -0.625 -0.375 -0.333 -0.041 -0.667 -0.084 -1 -0.125a40.98 40.98 0 0 0 -4.625 -2.5 115.787 115.787 0 0 0 -3.75 -3.063 25.528 25.528 0 0 0 -3.063 -3.625c-0.225 -0.502 -0.433 -1.002 -0.625 -1.5a108.813 108.813 0 0 1 -1.875 -3.125c0.04 -0.618 -0.127 -1.159 -0.5 -1.625 -0.033 -0.469 -0.116 -0.927 -0.25 -1.375 -0.166 -0.135 -0.354 -0.219 -0.563 -0.25v-21.25Z"/></g><g><path style="opacity:0.943" fill="#000000" d="M96.063 255.938h-49.375v-10.25c16.417 -0.041 32.834 0 49.25 0.125 0.124 3.37 0.166 6.745 0.125 10.125Z"/></g><g><path style="opacity:0.948" fill="#000000" d="M163.688 255.938h-49.125v-10.25h49.125v10.25Z"/></g><g><path style="opacity:0.941" fill="#000000" d="M232.063 255.938h-49.875c-0.04 -3.38 0.001 -6.755 0.125 -10.125 16.457 -0.125 32.916 -0.166 49.375 -0.125 -0.045 3.424 0.08 6.84 0.375 10.25Z"/></g></svg>