<svg xmlns="http://www.w3.org/2000/svg" version="1.1" width="256px" height="256px" style="shape-rendering:geometricPrecision; text-rendering:geometricPrecision; image-rendering:optimizeQuality; fill-rule:evenodd; clip-rule:evenodd" xmlns:xlink="http://www.w3.org/1999/xlink" viewBox="0 0 256 256">
  <g>
    <path style="opacity:0.6" fill="#000000" d="M23.062 -0.062h50.126v10.25H24.188c0.02 -1.708 0 -3.418 -0.062 -5.126a1.932 1.932 0 0 0 -0.376 -0.626l-0.126 -1.626 -0.376 -0.626 -0.188 -2.25Z"/>
  </g>
  <g>
    <path style="opacity:0.6" fill="#000000" d="M91.812 -0.062h49.376v10.25c-16.416 0.042 -32.834 0 -49.25 -0.126a207.794 207.794 0 0 1 -0.126 -10.126Z"/>
  </g>
  <g>
    <path style="opacity:0.6" fill="#000000" d="M159.688 -0.062h49.5v10.25h-49.5V-0.062Z"/>
  </g>
  <g>
    <path style="opacity:0.6" fill="#000000" d="M227.688 -0.062h9.626a0.692 0.692 0 0 0 0.5 0.562 5.746 5.746 0 0 0 1.25 0.25 0.86 0.86 0 0 0 0.626 0.376l1 0.126a41.072 41.072 0 0 0 4.626 2.5 115.782 115.782 0 0 0 3.75 3.062 25.552 25.552 0 0 0 3.062 3.626c0.226 0.502 0.434 1.002 0.626 1.5a112.732 112.732 0 0 1 1.876 3.126c-0.04 0.618 0.126 1.16 0.5 1.626 0.032 0.468 0.116 0.928 0.25 1.376a1.146 1.146 0 0 0 0.562 0.25v20.876h-10.25c0.022 -5.334 0 -10.666 -0.062 -16a44.524 44.524 0 0 0 -1 -4.126 10.98 10.98 0 0 1 -1.5 -2.75 8.764 8.764 0 0 1 -1.626 -1.876 11.164 11.164 0 0 1 -1.938 -1.688 10.834 10.834 0 0 1 -2.5 -1.376 5.746 5.746 0 0 0 -1.25 -0.25 0.86 0.86 0 0 0 -0.626 -0.376 14.008 14.008 0 0 1 -2.5 -0.5 99.216 99.216 0 0 0 -5 -0.062V-0.06Z"/>
  </g>
  <g>
    <path style="opacity:0.6" fill="#000000" d="M-0.062 62.188V18.312c0.602 -0.458 0.874 -1.082 0.812 -1.876a0.818 0.818 0 0 1 0.376 -0.376 12.324 12.324 0 0 0 0.626 -2.25l0.376 -0.25a389.816 389.816 0 0 0 1.25 -2.5c0.276 -0.348 0.63 -0.452 1.062 -0.312a1793.064 1793.064 0 0 1 6.376 4.376c0.408 0.308 0.866 0.516 1.376 0.626a1.064 1.064 0 0 0 0.438 0.562 1.148 1.148 0 0 1 0 0.75c-0.348 0.276 -0.64 0.61 -0.876 1a3.868 3.868 0 0 1 -0.5 1.126l-0.126 0.876a0.818 0.818 0 0 0 -0.376 0.376l-0.126 1.626a0.828 0.828 0 0 0 -0.376 0.626c-0.062 13.166 -0.084 26.334 -0.062 39.5H-0.062Z"/>
  </g>
  <g>
    <path style="opacity:0.6" fill="#000000" d="M87.562 31.938c2.958 -0.02 5.916 0 8.876 0.062a1.114 1.114 0 0 0 0.5 0.376l1.626 0.126a694.474 694.474 0 0 0 2.376 0.626l1.626 0.126a0.912 0.912 0 0 0 0.376 0.25l1.626 0.126a694.474 694.474 0 0 0 2.376 0.626l1.626 0.126a0.912 0.912 0 0 0 0.376 0.25l1.626 0.126a0.912 0.912 0 0 0 0.376 0.25l1.626 0.126c0.634 0.262 1.302 0.386 2 0.376a0.912 0.912 0 0 0 0.376 0.25l1.626 0.126a0.912 0.912 0 0 0 0.376 0.25l1.626 0.126c0.634 0.262 1.302 0.386 2 0.376a0.912 0.912 0 0 0 0.376 0.25l1.626 0.126a0.912 0.912 0 0 0 0.376 0.25l1.626 0.126 0.5 0.25 3.5 0.5a0.916 0.916 0 0 0 0.376 0.25l1.626 0.126 0.5 0.25 3.5 0.5a0.916 0.916 0 0 0 0.376 0.25l1.626 0.126 0.5 0.25 3.5 0.5a0.916 0.916 0 0 0 0.376 0.25l1.626 0.126 0.5 0.25 3.5 0.5c0.14 0.13 0.308 0.214 0.5 0.25l1.5 0.126a0.916 0.916 0 0 0 0.376 0.25l1.626 0.126a0.916 0.916 0 0 0 0.376 0.25l1.626 0.126a0.916 0.916 0 0 0 0.376 0.25l1.626 0.126a0.916 0.916 0 0 0 0.376 0.25l1.626 0.126a0.916 0.916 0 0 0 0.376 0.25l1.626 0.126a0.916 0.916 0 0 0 0.376 0.25l1.626 0.126c0.636 0.262 1.302 0.386 2 0.376a0.916 0.916 0 0 0 0.376 0.25 5.468 5.468 0 0 1 2.126 0.376l1.5 0.126a0.916 0.916 0 0 0 0.376 0.25l1.626 0.126c0.636 0.262 1.302 0.386 2 0.376a0.916 0.916 0 0 0 0.376 0.25l1.626 0.126c0.636 0.262 1.302 0.386 2 0.376a0.916 0.916 0 0 0 0.376 0.25 5.468 5.468 0 0 1 2.126 0.376l1.5 0.126a0.916 0.916 0 0 0 0.376 0.25l1.626 0.126 0.5 0.25 3.5 0.5a0.916 0.916 0 0 0 0.376 0.25l1.626 0.126 0.5 0.25 3.5 0.5a0.916 0.916 0 0 0 0.376 0.25l1.626 0.126c0.636 0.262 1.302 0.386 2 0.376a0.916 0.916 0 0 0 0.376 0.25l1.626 0.126c0.636 0.262 1.302 0.386 2 0.376 0.636 0.262 1.302 0.386 2 0.376 0.636 0.262 1.302 0.386 2 0.376 0.636 0.262 1.302 0.386 2 0.376 0.636 0.262 1.302 0.386 2 0.376l0.5 0.25c1.752 0.278 3.502 0.57 5.25 0.876 4.468 1.34 7.782 4.11 9.938 8.312 0.284 0.54 0.452 1.124 0.5 1.75l0.376 0.376a96.382 96.382 0 0 1 -0.062 8.5 0.628 0.628 0 0 0 -0.312 0.5l-0.126 1.5c-0.208 0.796 -0.416 1.588 -0.626 2.376a5.504 5.504 0 0 1 -0.376 2.126 565.6 565.6 0 0 0 -1.25 7.5c-0.208 0.796 -0.416 1.588 -0.626 2.376a99.13 99.13 0 0 1 -0.5 3.626c-0.208 0.796 -0.416 1.588 -0.626 2.376a5.504 5.504 0 0 1 -0.376 2.126 565.6 565.6 0 0 0 -1.25 7.5c-0.208 0.796 -0.416 1.588 -0.626 2.376a99.13 99.13 0 0 1 -0.5 3.626c-0.208 0.796 -0.416 1.588 -0.626 2.376a99.13 99.13 0 0 1 -0.5 3.626 4.508 4.508 0 0 0 -0.376 1.876 0.99 0.99 0 0 1 -0.25 0.5 5.991 5.991 0 0 1 -0.376 2.126l-0.126 1.5c-0.208 0.796 -0.416 1.588 -0.626 2.376a98.754 98.754 0 0 1 -0.5 3.626 4.508 4.508 0 0 0 -0.376 1.876 0.99 0.99 0 0 1 -0.25 0.5 5.984 5.984 0 0 1 -0.376 2.126l-0.126 1.5c-0.208 0.796 -0.416 1.588 -0.626 2.376l-0.876 5.75 -0.25 0.25 -0.126 1.75a0.908 0.908 0 0 0 -0.25 0.376 57.864 57.864 0 0 0 -0.5 3.626l-0.25 0.25 -0.126 1.75a0.908 0.908 0 0 0 -0.25 0.376l-0.5 3.5a0.922 0.922 0 0 1 -0.25 0.376l-0.126 1.75a0.908 0.908 0 0 0 -0.25 0.376 57.864 57.864 0 0 0 -0.5 3.626l-0.25 0.25 -0.126 1.75a0.908 0.908 0 0 0 -0.25 0.376 57.864 57.864 0 0 0 -0.5 3.626l-0.25 0.25 -0.126 1.75a0.908 0.908 0 0 0 -0.25 0.376l-0.5 3.5 -0.25 0.5 -0.126 1.626a0.908 0.908 0 0 0 -0.25 0.376l-0.5 3.5 -0.25 0.5 -0.126 1.626a0.908 0.908 0 0 0 -0.25 0.376l-0.876 5.5a4.508 4.508 0 0 0 -0.376 1.876c-1.684 5.724 -5.412 9.412 -11.188 11.062a13.49 13.49 0 0 0 -3.188 0.438 16.15 16.15 0 0 0 -3.562 -0.438 5.004 5.004 0 0 0 -2 -0.376l-0.188 -0.188 -0.126 11.5a7.508 7.508 0 0 0 -0.376 2.376c-1.426 4.86 -4.488 8.298 -9.188 10.312a1.252 1.252 0 0 0 -1.126 0.5 21633 21633 0 0 1 -127.376 -0.062 0.904 0.904 0 0 0 -0.25 -0.312c-4.464 -1.504 -7.61 -4.442 -9.438 -8.812a1.494 1.494 0 0 0 -0.438 -1.126 16225.986 16225.986 0 0 1 0 -127.126c1.942 -5.418 5.65 -8.898 11.126 -10.438a13.72 13.72 0 0 0 2.876 -0.376l24.376 -0.126a2492.764 2492.764 0 0 0 6.286 -33.634c1.518 -4.02 4.206 -7.04 8.062 -9.062a7.682 7.682 0 0 1 1.626 -0.5 1.838 1.838 0 0 0 0.376 -0.438Zm6.5 10.75c1.5 -0.02 3 0 4.5 0.062a0.912 0.912 0 0 1 0.376 0.25l1.626 0.126 0.5 0.25 3.5 0.5a0.912 0.912 0 0 1 0.376 0.25l3.75 0.5a0.912 0.912 0 0 1 0.376 0.25 58.652 58.652 0 0 0 3.626 0.5 0.912 0.912 0 0 1 0.376 0.25 58.652 58.652 0 0 0 3.626 0.5 0.912 0.912 0 0 1 0.376 0.25 58.652 58.652 0 0 0 3.626 0.5 0.912 0.912 0 0 1 0.376 0.25 58.652 58.652 0 0 0 3.626 0.5 0.912 0.912 0 0 1 0.376 0.25 58.706 58.706 0 0 0 3.626 0.5 0.916 0.916 0 0 1 0.376 0.25l1.626 0.126a0.916 0.916 0 0 1 0.376 0.25 58.706 58.706 0 0 0 3.626 0.5 0.916 0.916 0 0 1 0.376 0.25l1.626 0.126a0.916 0.916 0 0 1 0.376 0.25 58.706 58.706 0 0 0 3.626 0.5 0.916 0.916 0 0 1 0.376 0.25 58.706 58.706 0 0 0 3.626 0.5 0.916 0.916 0 0 1 0.376 0.25l1.626 0.126a0.916 0.916 0 0 1 0.376 0.25l1.626 0.126a0.916 0.916 0 0 1 0.376 0.25l1.626 0.126a0.916 0.916 0 0 1 0.376 0.25l1.626 0.126a0.916 0.916 0 0 1 0.376 0.25l1.626 0.126a0.916 0.916 0 0 1 0.376 0.25l1.626 0.126a0.916 0.916 0 0 1 0.376 0.25l1.626 0.126a0.916 0.916 0 0 1 0.376 0.25 58.706 58.706 0 0 0 3.626 0.5 0.916 0.916 0 0 1 0.376 0.25l3.5 0.5 0.5 0.25 1.626 0.126a0.916 0.916 0 0 1 0.376 0.25 58.706 58.706 0 0 0 3.626 0.5 0.916 0.916 0 0 1 0.376 0.25 58.706 58.706 0 0 0 3.626 0.5 0.916 0.916 0 0 1 0.376 0.25l1.626 0.126a0.916 0.916 0 0 1 0.376 0.25 58.706 58.706 0 0 0 3.626 0.5 0.916 0.916 0 0 1 0.376 0.25l1.626 0.126a0.916 0.916 0 0 1 0.376 0.25 58.706 58.706 0 0 0 3.626 0.5 0.916 0.916 0 0 1 0.376 0.25l1.626 0.126a0.916 0.916 0 0 1 0.376 0.25 58.706 58.706 0 0 0 3.626 0.5 0.916 0.916 0 0 1 0.376 0.25l1.626 0.126a0.916 0.916 0 0 1 0.376 0.25 58.706 58.706 0 0 0 3.626 0.5 0.916 0.916 0 0 1 0.376 0.25l1.626 0.126a0.916 0.916 0 0 1 0.376 0.25c4.736 0.39 7.818 2.87 9.25 7.438a31.736 31.736 0 0 1 0.062 4.876 0.99 0.99 0 0 0 -0.25 0.5l-0.126 1.5a0.92 0.92 0 0 0 -0.25 0.376l-0.126 1.626 -0.25 0.5a42.078 42.078 0 0 0 -0.5 3.5 0.92 0.92 0 0 0 -0.25 0.376l-0.126 1.626 -0.25 0.5a42.078 42.078 0 0 0 -0.5 3.5 0.92 0.92 0 0 0 -0.25 0.376l-0.126 1.626a92.192 92.192 0 0 0 -0.626 2.5l-0.126 1.5a0.92 0.92 0 0 0 -0.25 0.376l-0.126 1.626a92.192 92.192 0 0 0 -0.626 2.5l-0.126 1.5a0.92 0.92 0 0 0 -0.25 0.376l-0.126 1.626a92.192 92.192 0 0 0 -0.626 2.5l-0.126 1.5a0.92 0.92 0 0 0 -0.25 0.376l-0.126 1.626a92.192 92.192 0 0 0 -0.626 2.5l-0.126 1.5a0.92 0.92 0 0 0 -0.25 0.376l-0.126 1.626a92.192 92.192 0 0 0 -0.626 2.5l-0.126 1.5a0.92 0.92 0 0 0 -0.25 0.376l-0.126 1.626 -0.25 0.5a42.078 42.078 0 0 0 -0.5 3.5 0.92 0.92 0 0 0 -0.25 0.376l-0.126 1.626 -0.25 0.5a41.514 41.514 0 0 0 -0.5 3.5 0.908 0.908 0 0 0 -0.25 0.376l-0.126 1.626 -0.25 0.5a41.514 41.514 0 0 0 -0.5 3.5 0.908 0.908 0 0 0 -0.25 0.376l-0.126 1.626 -0.25 0.5a41.514 41.514 0 0 0 -0.5 3.5 0.99 0.99 0 0 0 -0.25 0.5l-0.876 5.5a0.908 0.908 0 0 0 -0.25 0.376l-0.126 1.626 -0.25 0.5a41.514 41.514 0 0 0 -0.5 3.5 0.908 0.908 0 0 0 -0.25 0.376l-0.126 1.626 -0.25 0.5a111.992 111.992 0 0 1 -1 6c-4.868 -6.618 -9.742 -13.244 -14.626 -19.876l-0.126 -54.25c-1.098 -6.808 -4.952 -11.202 -11.562 -13.188a14.276 14.276 0 0 1 -3 -0.376 9646.996 9646.996 0 0 0 -85.062 0.062c-0.044 -0.212 0.04 -0.38 0.25 -0.5l0.126 -1.626 0.25 -0.5a42.024 42.024 0 0 0 0.5 -3.5l0.25 -0.5 0.126 -1.626a0.912 0.912 0 0 0 0.25 -0.376l0.5 -3.5a0.912 0.912 0 0 1 0.25 -0.376l0.126 -1.626a0.912 0.912 0 0 1 0.25 -0.376l0.126 -1.626c0.262 -0.634 0.386 -1.302 0.376 -2a0.912 0.912 0 0 1 0.25 -0.376l0.126 -1.626c0.262 -0.634 0.386 -1.302 0.376 -2l0.25 -0.5c0.474 -5.364 3.244 -8.822 8.312 -10.376ZM50.812 85.814c37.416 -0.02 74.834 0 112.25 0.062 3.996 1.038 6.558 3.56 7.688 7.562 0.104 30.916 0.084 61.834 -0.062 92.75l-44.126 -41.5a1.394 1.394 0 0 0 -1 -0.062c-5.212 3.208 -10.42 6.418 -15.626 9.626a0.528 0.528 0 0 1 -0.5 0 1785.238 1785.238 0 0 0 -25.186 -25.064 3793.362 3793.362 0 0 1 -40.562 26.688l-1.312 1.062a7413.5 7413.5 0 0 1 0 -61.126c0.318 -3.86 2.13 -6.796 5.438 -8.812a33.384 33.384 0 0 1 1.626 -0.75l1 -0.126a0.538 0.538 0 0 0 0.376 -0.312Z"/>
  </g>
  <g>
    <path style="opacity:0.6" fill="#000000" d="M255.938 57.812v49.376h-10.25c-0.022 -16.416 0 -32.834 0.062 -49.25a208.978 208.978 0 0 1 10.188 -0.126Z"/>
  </g>
  <g>
    <path style="opacity:0.6" fill="#000000" d="M-0.062 80.688h10.25v49.25H-0.062V80.688Z"/>
  </g>
  <g>
    <path style="opacity:0.6" fill="#000000" d="M138.688 95.438c1.458 -0.02 2.918 0 4.376 0.062 7.958 1.498 12.978 6.186 15.062 14.062 1.094 7.66 -1.51 13.702 -7.812 18.126a29.703 29.703 0 0 1 -2.876 1.562c-1.416 0.374 -2.832 0.748 -4.25 1.126 -7.102 0.588 -12.748 -1.976 -16.938 -7.688a42.676 42.676 0 0 1 -1.876 -3.626 6.74 6.74 0 0 1 -0.5 -2.25 0.912 0.912 0 0 1 -0.25 -0.376 24.56 24.56 0 0 0 -0.312 -3.438c0.214 -6.052 2.756 -10.886 7.626 -14.5a39.196 39.196 0 0 1 3.5 -1.876 5.696 5.696 0 0 1 2 -0.5l0.25 -0.25 1.5 -0.126a1.494 1.494 0 0 0 0.5 -0.312Z"/>
  </g>
  <g>
    <path style="opacity:0.6" fill="#000000" d="M255.938 125.688v49.5h-10.25v-49.5h10.25Z"/>
  </g>
  <g>
    <path style="opacity:0.6" fill="#000000" d="M-0.062 148.562h10.25v49.126H-0.062v-49.126Z"/>
  </g>
  <g>
    <path style="opacity:0.6" fill="#000000" d="M255.938 193.688v44a0.352 0.352 0 0 0 -0.312 0.126 2.734 2.734 0 0 0 -0.5 1.626 0.826 0.826 0 0 1 -0.376 0.376 1.806 1.806 0 0 1 -0.5 1.376l-0.126 0.876c-0.344 0.126 -0.512 0.376 -0.5 0.75a4.02 4.02 0 0 0 -0.938 2.126 3.248 3.248 0 0 1 -1.626 -0.25 3089.343 3089.343 0 0 0 -6.5 -4.376c-0.66 -0.118 -1.078 -0.494 -1.25 -1.126 0.528 -0.764 0.966 -1.598 1.312 -2.5l0.126 -0.876a0.826 0.826 0 0 0 0.376 -0.376l0.126 -1.626a0.86 0.86 0 0 0 0.376 -0.626c0.062 -13.166 0.084 -26.334 0.062 -39.5h10.25Z"/>
  </g>
  <g>
    <path style="opacity:0.6" fill="#000000" d="M-0.062 216.312c3.404 -0.042 6.8 0.002 10.188 0.126l0.126 16.25a44.406 44.406 0 0 0 1 4.126 11.054 11.054 0 0 1 1.5 2.75 8.782 8.782 0 0 1 1.626 1.876 11.178 11.178 0 0 1 1.938 1.688 10.822 10.822 0 0 1 2.5 1.376 5.74 5.74 0 0 0 1.25 0.25 0.86 0.86 0 0 0 0.626 0.376c0.848 0.09 1.682 0.258 2.5 0.5 1.666 0.062 3.332 0.084 5 0.062v10.25h-9.626a0.692 0.692 0 0 0 -0.5 -0.562 5.74 5.74 0 0 0 -1.25 -0.25 0.86 0.86 0 0 0 -0.626 -0.376l-1 -0.126a40.98 40.98 0 0 0 -4.626 -2.5 115.786 115.786 0 0 0 -3.75 -3.062 25.528 25.528 0 0 0 -3.062 -3.626 29.52 29.52 0 0 1 -0.626 -1.5 108.814 108.814 0 0 1 -1.876 -3.126 2.276 2.276 0 0 0 -0.5 -1.626 6.292 6.292 0 0 0 -0.25 -1.376 1.146 1.146 0 0 0 -0.562 -0.25v-21.25Z"/>
  </g>
  <g>
    <path style="opacity:0.6" fill="#000000" d="M96.062 255.938H46.686v-10.25c16.416 -0.042 32.834 0 49.25 0.126 0.124 3.37 0.166 6.746 0.126 10.126Z"/>
  </g>
  <g>
    <path style="opacity:0.6" fill="#000000" d="M163.688 255.938H114.562v-10.25h49.126v10.25Z"/>
  </g>
  <g>
    <path style="opacity:0.6" fill="#000000" d="M232.062 255.938h-49.876c-0.04 -3.38 0.002 -6.754 0.126 -10.126 16.458 -0.126 32.916 -0.166 49.376 -0.126a103.12 103.12 0 0 0 0.376 10.25Z"/>
  </g>
</svg>
