<svg xmlns="http://www.w3.org/2000/svg" version="1.1" width="65px" height="65px" style="shape-rendering:geometricPrecision; text-rendering:geometricPrecision; image-rendering:optimizeQuality; fill-rule:evenodd; clip-rule:evenodd" xmlns:xlink="http://www.w3.org/1999/xlink" viewBox="0 0 65px 65px">
<g><path style="opacity:0.6" fill="#000000" d="M19.948 -0.016h25.137c0.054 0.139 0.16 0.208 0.317 0.206 0.452 0.275 0.853 0.619 1.206 1.031a0.952 0.952 0 0 1 0.175 0.317c0.095 0.054 0.137 0.138 0.127 0.254l0.095 0.063c0.011 0.096 0.027 0.191 0.048 0.286 0.012 0.045 0.038 0.076 0.079 0.095a40.186 40.186 0 0 0 0.143 1.127c0.006 0.103 -0.015 0.199 -0.063 0.286 0.01 0.016 0.021 0.032 0.032 0.048 1.374 0.026 2.749 0.042 4.126 0.048 0.202 0.088 0.413 0.13 0.635 0.127 0.039 0.055 0.091 0.087 0.159 0.095 0.21 0.05 0.422 0.103 0.635 0.159 1.709 0.714 2.994 1.894 3.856 3.539 0.066 0.156 0.124 0.315 0.175 0.476 0.026 0.028 0.058 0.039 0.095 0.032 -0.005 0.096 0 0.191 0.016 0.286 0.09 0.119 0.132 0.256 0.127 0.413l0.143 0.222c0.042 16.811 0.042 33.621 0 50.432 -0.057 0.029 -0.1 0.071 -0.127 0.127 -0.022 0.126 -0.038 0.253 -0.048 0.381 -0.089 0.11 -0.131 0.237 -0.127 0.381 -0.094 0.083 -0.136 0.188 -0.127 0.317 -0.074 0.127 -0.148 0.254 -0.222 0.381 -0.033 0.16 -0.107 0.297 -0.222 0.413a0.657 0.657 0 0 0 -0.063 0.19c-0.088 0.032 -0.13 0.095 -0.127 0.19a5.667 5.667 0 0 0 -0.524 0.698c-0.307 0.296 -0.614 0.593 -0.92 0.889a29.075 29.075 0 0 0 -0.92 0.651 17.302 17.302 0 0 1 -1.047 0.508c-0.136 -0.007 -0.253 0.036 -0.349 0.127 -0.129 0.007 -0.256 0.029 -0.381 0.063 -0.068 0.028 -0.11 0.076 -0.127 0.143h-38.848c-0.031 -0.054 -0.073 -0.101 -0.127 -0.143 -1.702 -0.46 -3.062 -1.417 -4.078 -2.872a0.157 0.157 0 0 1 -0.016 -0.095c-0.037 0.007 -0.069 -0.003 -0.095 -0.032l-0.063 -0.19c-0.219 -0.311 -0.388 -0.649 -0.508 -1.016 -0.026 -0.028 -0.058 -0.039 -0.095 -0.032 0.005 -0.085 0 -0.17 -0.016 -0.254 -0.006 -0.057 -0.033 -0.099 -0.079 -0.127a1.654 1.654 0 0 1 -0.048 -0.317 0.941 0.941 0 0 0 -0.143 -0.19c-0.042 -16.821 -0.042 -33.643 0 -50.464a0.475 0.475 0 0 1 0.111 -0.095 2.187 2.187 0 0 0 0.063 -0.444c0.037 -0.016 0.063 -0.042 0.079 -0.079a2.089 2.089 0 0 0 0.048 -0.27 0.208 0.208 0 0 1 0.095 -0.095l0.032 -0.222 0.222 -0.381 0.032 -0.159c0.074 -0.105 0.148 -0.21 0.222 -0.317 -0.003 -0.095 0.039 -0.159 0.127 -0.19a0.655 0.655 0 0 1 0.063 -0.19c0.155 -0.129 0.271 -0.288 0.349 -0.476a12.603 12.603 0 0 1 1.063 -1.063 10.913 10.913 0 0 1 1.143 -0.762 1.734 1.734 0 0 0 0.222 -0.063c0.193 -0.135 0.405 -0.241 0.635 -0.317 0.126 0.004 0.232 -0.038 0.317 -0.127l0.286 -0.032c0.067 -0.008 0.12 -0.04 0.159 -0.095 0.222 0.003 0.433 -0.039 0.635 -0.127 1.386 -0.016 2.772 -0.021 4.158 -0.016 -0.005 -0.413 0 -0.825 0.016 -1.238 0.091 -0.121 0.133 -0.259 0.127 -0.413 0.078 -0.103 0.12 -0.219 0.127 -0.349l0.095 -0.063a1.03 1.03 0 0 1 0.048 -0.19c0.026 -0.028 0.058 -0.039 0.095 -0.032 0.098 -0.226 0.235 -0.427 0.413 -0.603a3.344 3.344 0 0 1 0.667 -0.508 1.881 1.881 0 0 1 0.476 -0.206 0.291 0.291 0 0 0 0.063 -0.143Zm1.936 3.872h21.328v3.682c-7.109 0.005 -14.219 0 -21.328 -0.016 -0.079 -0.039 -0.084 -0.086 -0.016 -0.143 0.021 -1.121 0.021 -2.243 0 -3.364 -0.064 -0.06 -0.058 -0.113 0.016 -0.159Zm-7.109 3.809h3.047c-0.005 0.413 0 0.825 0.016 1.238l0.063 0.063c0.027 0.245 0.091 0.477 0.19 0.698 0.092 0.043 0.134 0.117 0.127 0.222a3.413 3.413 0 0 1 0.381 0.508c0.312 0.328 0.666 0.597 1.063 0.809 0.11 0.012 0.206 0.054 0.286 0.127 0.143 0.004 0.269 0.046 0.381 0.127 8.125 0.021 16.25 0.021 24.375 0 0.109 -0.089 0.236 -0.131 0.381 -0.127a0.722 0.722 0 0 1 0.317 -0.143c0.137 -0.079 0.275 -0.159 0.413 -0.238 0.331 -0.278 0.633 -0.59 0.905 -0.936 0.019 -0.101 0.072 -0.175 0.159 -0.222 -0.01 -0.115 0.032 -0.2 0.127 -0.254 0.01 -0.102 0.025 -0.202 0.048 -0.302 0.016 -0.037 0.043 -0.064 0.079 -0.079 0.042 -0.376 0.09 -0.751 0.143 -1.127 0.006 -0.103 -0.015 -0.199 -0.063 -0.286 0.013 -0.03 0.034 -0.051 0.063 -0.063 0.994 -0.021 1.989 -0.021 2.983 0a5.882 5.882 0 0 0 0.825 0.127c0.572 0.177 1.064 0.49 1.476 0.936a2.276 2.276 0 0 0 0.286 0.349c-0.003 0.097 0.034 0.171 0.111 0.222 0.099 0.208 0.189 0.419 0.27 0.635 0.01 0.138 0.021 0.275 0.032 0.413 0.063 0.118 0.094 0.245 0.095 0.381 0.005 0.619 0.01 1.238 0.016 1.857 -0.066 15.345 -0.113 30.691 -0.143 46.036 -0.091 0.121 -0.133 0.259 -0.127 0.413 -0.119 0.248 -0.246 0.492 -0.381 0.73 -0.441 0.557 -0.996 0.954 -1.666 1.19 -0.29 0.013 -0.576 0.055 -0.857 0.127 -11.817 0.021 -23.634 0.021 -35.452 0a4.257 4.257 0 0 0 -0.857 -0.127c-0.067 -0.008 -0.12 -0.04 -0.159 -0.095 -0.074 -0.01 -0.148 -0.021 -0.222 -0.032 -0.836 -0.386 -1.397 -1.016 -1.682 -1.888 -0.041 -0.019 -0.068 -0.05 -0.079 -0.095 -0.004 -0.284 -0.046 -0.559 -0.127 -0.825l-0.016 -2.047c0.064 -15.282 0.112 -30.564 0.143 -45.846 0.091 -0.121 0.133 -0.259 0.127 -0.413a7.513 7.513 0 0 1 0.381 -0.73c0.351 -0.466 0.79 -0.82 1.317 -1.063 0.099 0.001 0.184 -0.03 0.254 -0.095 0.329 -0.024 0.646 -0.082 0.952 -0.175Z"/></g>
<g><path style="opacity:0.6" fill="#000000" d="M37.277 15.98c0.35 -0.011 0.699 0 1.047 0.032 0.098 0.118 0.225 0.176 0.381 0.175 0.021 0.021 0.042 0.042 0.063 0.063 0.158 0.051 0.316 0.104 0.476 0.159 0.32 0.235 0.669 0.415 1.047 0.54a28.721 28.721 0 0 0 2.285 1.143c0.086 0.064 0.171 0.127 0.254 0.19 0.355 0.098 0.682 0.257 0.984 0.476 0.169 0.063 0.339 0.127 0.508 0.19 0.089 0.087 0.194 0.139 0.317 0.159a0.361 0.361 0 0 0 0.063 0.079c0.143 0.066 0.292 0.125 0.444 0.175a21.213 21.213 0 0 0 1.682 0.889 8.755 8.755 0 0 1 0.619 0.555 1.174 1.174 0 0 0 0.238 0.317c0.046 0.22 0.13 0.421 0.254 0.603a5.759 5.759 0 0 1 0 1.206c-0.104 0.128 -0.151 0.276 -0.143 0.444a62.07 62.07 0 0 1 -0.746 0.905 4.124 4.124 0 0 1 -0.571 0.381c-0.159 0.021 -0.308 0.074 -0.444 0.159 -0.163 0.032 -0.327 0.058 -0.492 0.079a3.674 3.674 0 0 0 -0.651 -0.079 24.667 24.667 0 0 1 -2.603 -1.27 1.951 1.951 0 0 0 -0.413 -0.127c-0.181 -0.118 -0.361 -0.234 -0.54 -0.349a2.337 2.337 0 0 0 -0.444 -0.159c-0.535 -0.294 -1.075 -0.58 -1.619 -0.857a1.289 1.289 0 0 1 -0.413 -0.159 3.838 3.838 0 0 0 -0.492 -0.27 0.777 0.777 0 0 1 -0.111 -0.111c-0.352 -0.096 -0.68 -0.255 -0.984 -0.476a1.262 1.262 0 0 1 -0.381 -0.175c-0.019 0.007 -0.035 0.017 -0.048 0.032a4.151 4.151 0 0 1 -0.984 -0.73 3.484 3.484 0 0 0 -0.381 -0.54c-0.017 0.085 -0.001 0.164 0.048 0.238 -0.005 0.048 -0.032 0.074 -0.079 0.079 -0.074 -0.053 -0.148 -0.106 -0.222 -0.159 -0.005 -0.063 -0.01 -0.127 -0.016 -0.19 0.042 -0.158 0.084 -0.317 0.127 -0.476 -0.064 -0.345 -0.08 -0.694 -0.048 -1.047 0.261 -1.001 0.879 -1.662 1.857 -1.984 0.065 -0.016 0.107 -0.053 0.127 -0.111Z"/></g>
<g><path style="opacity:0.6" fill="#000000" d="M31.024 23.502a0.237 0.237 0 0 0 -0.095 0.063 10.789 10.789 0 0 1 -0.381 0.587c-0.133 -0.01 -0.217 0.048 -0.254 0.175a5.457 5.457 0 0 1 -0.635 0.381 0.869 0.869 0 0 1 -0.111 -0.032 3.741 3.741 0 0 1 -0.428 0.159c-2.332 0.02 -4.66 0.02 -6.982 0a0.292 0.292 0 0 0 -0.143 0.063 0.574 0.574 0 0 0 -0.111 -0.063c-0.089 0.041 -0.179 0.041 -0.27 0a21.719 21.719 0 0 0 -0.476 0.063 15.486 15.486 0 0 0 -0.524 0 1.179 1.179 0 0 1 -0.143 -0.063c-0.364 0.041 -0.729 0.035 -1.095 -0.016l-0.19 -0.127 -0.444 -0.143c-0.309 -0.272 -0.59 -0.568 -0.841 -0.889a7.375 7.375 0 0 1 -0.397 -1.396 54.031 54.031 0 0 0 0.238 -0.952 8.704 8.704 0 0 1 0.508 -0.73c0.13 -0.057 0.231 -0.147 0.302 -0.27l0.571 -0.317c0.163 0.004 0.311 -0.039 0.444 -0.127a8.684 8.684 0 0 0 0.793 -0.079l0.413 0.063a28.929 28.929 0 0 1 0.555 0 1.715 1.715 0 0 0 0.175 -0.063c1.653 0.009 3.303 0.02 4.951 0.032a1.179 1.179 0 0 0 0.143 -0.063c0.152 0.022 0.306 0.043 0.46 0.063a9.323 9.323 0 0 1 0.54 0 0.292 0.292 0 0 0 0.143 -0.063c0.183 0.009 0.368 0.009 0.555 0a0.574 0.574 0 0 1 0.175 0.063c0.091 -0.083 0.181 -0.083 0.27 0l0.127 -0.063c0.084 0.065 0.174 0.075 0.27 0.032 0.132 0.06 0.264 0.087 0.397 0.079 0.42 0.218 0.801 0.462 1.143 0.73a0.116 0.116 0 0 0 -0.032 0.048c0.056 0.123 0.146 0.207 0.27 0.254 0.006 0.076 0.022 0.15 0.048 0.222a1.219 1.219 0 0 0 0.175 0.286c0.129 0.491 0.187 0.988 0.175 1.492h-0.127c0.009 0.107 0.014 0.213 0.016 0.317 -0.09 0.075 -0.148 0.17 -0.175 0.286Z"/></g>
<g><path style="opacity:0.6" fill="#000000" d="M26.803 26.041a9.743 9.743 0 0 1 1.238 0.048 1.115 1.115 0 0 1 0.317 0.159l0.19 0.032c0.023 0.12 0.097 0.173 0.222 0.159a0.442 0.442 0 0 0 0.095 0.127c0.095 0.052 0.19 0.105 0.286 0.159a12.737 12.737 0 0 0 0.508 0.555c0.628 1.012 0.633 2.028 0.016 3.047a24.931 24.931 0 0 1 -0.524 0.587 1.66 1.66 0 0 0 -0.349 0.27 1.292 1.292 0 0 0 -0.444 0.254 16.27 16.27 0 0 1 -2.031 0 2.161 2.161 0 0 0 -0.476 -0.27 4.959 4.959 0 0 1 -0.492 -0.428 2.382 2.382 0 0 0 -0.349 -0.413c-0.039 -0.141 -0.113 -0.257 -0.222 -0.349l-0.032 -0.222c-0.035 -0.049 -0.083 -0.07 -0.143 -0.063v-1.714c0.042 0.005 0.079 -0.005 0.111 -0.032a1.459 1.459 0 0 0 0.063 -0.317c0.208 -0.325 0.456 -0.627 0.746 -0.905a5.264 5.264 0 0 0 0.381 -0.286c0.115 0.001 0.189 -0.052 0.222 -0.159 0.155 -0.014 0.293 -0.067 0.413 -0.159a4.061 4.061 0 0 0 0.254 -0.079Z"/></g>
<g><path style="opacity:0.6" fill="#000000" d="M37.213 26.041a5.842 5.842 0 0 0 1.079 0c0.161 0.006 0.298 0.064 0.413 0.175 0.096 0.017 0.191 0.038 0.286 0.063 0.021 0.042 0.042 0.085 0.063 0.127a0.654 0.654 0 0 1 0.19 0.063c0.349 0.263 0.655 0.569 0.92 0.92a2.073 2.073 0 0 1 0.048 0.175c0.032 0.027 0.069 0.037 0.111 0.032 0.016 0.095 0.032 0.19 0.048 0.286 0.023 0.047 0.06 0.068 0.111 0.063 0.01 0.582 0 1.164 -0.032 1.746a0.23 0.23 0 0 0 -0.079 0.063 1.458 1.458 0 0 0 -0.063 0.317c-0.05 -0.018 -0.092 0.003 -0.127 0.063 -0.023 0.062 -0.018 0.12 0.016 0.175l-0.095 0.032c-0.35 0.461 -0.784 0.826 -1.301 1.095a16.27 16.27 0 0 1 -2.031 0c-0.121 -0.126 -0.269 -0.205 -0.444 -0.238a9.776 9.776 0 0 0 -0.508 -0.428c-0.063 -0.063 -0.111 -0.137 -0.143 -0.222a1.286 1.286 0 0 0 -0.206 -0.19 1.19 1.19 0 0 0 -0.238 -0.381c0.007 -0.136 -0.036 -0.253 -0.127 -0.349a0.709 0.709 0 0 1 -0.048 -0.238c0.03 -0.428 0.036 -0.857 0.016 -1.285 0.008 -0.067 0.04 -0.12 0.095 -0.159a1.458 1.458 0 0 0 0.063 -0.317c0.213 -0.323 0.462 -0.624 0.746 -0.905 0.112 -0.09 0.228 -0.175 0.349 -0.254 0.132 -0.008 0.216 -0.071 0.254 -0.19a1.364 1.364 0 0 0 0.286 -0.063c0.111 -0.077 0.227 -0.135 0.349 -0.175Z"/></g>
<g><path style="opacity:0.6" fill="#000000" d="M21.757 40.609c3.83 -0.01 7.66 0 11.489 0.032 0.045 0.065 0.109 0.097 0.19 0.095 0.169 -0.042 0.338 -0.084 0.508 -0.127 0.109 0.01 0.21 0.042 0.302 0.095 0.039 -0.004 0.076 -0.015 0.111 -0.032 0.164 0.015 0.323 0.046 0.476 0.095 0.087 -0.047 0.182 -0.068 0.286 -0.063 0.178 -0.014 0.358 0.008 0.54 0.063 0.572 -0.082 1.143 -0.072 1.714 0.032 0.107 -0.009 0.208 -0.04 0.302 -0.095 0.528 0.023 1.057 0.044 1.587 0.063 0.22 -0.047 0.437 -0.036 0.651 0.032 0.104 -0.007 0.205 -0.028 0.302 -0.063a4.413 4.413 0 0 0 1.047 0c0.109 0.02 0.216 0.051 0.317 0.095 0.226 -0.035 0.454 -0.041 0.682 -0.016 0.249 0.072 0.492 0.156 0.73 0.254 0.436 0.262 0.806 0.595 1.111 1 0.083 0.183 0.173 0.363 0.27 0.54 0.085 0.488 0.085 0.975 0 1.46 -0.097 0.109 -0.161 0.236 -0.19 0.381 -0.306 0.528 -0.724 0.935 -1.254 1.222 -0.049 0.035 -0.07 0.083 -0.063 0.143 -4.683 0.021 -9.364 0 -14.044 -0.063 -0.397 0.083 -0.794 0.083 -1.19 0 -0.191 0.082 -0.382 0.082 -0.571 0 -0.055 0.029 -0.113 0.05 -0.175 0.063a0.796 0.796 0 0 0 -0.365 -0.095v0.095a1.86 1.86 0 0 0 -0.238 -0.127 2.948 2.948 0 0 0 -0.238 0.063 9.987 9.987 0 0 1 -1.222 -0.127 1.095 1.095 0 0 1 -0.381 0.063 4.613 4.613 0 0 0 -1.079 0c-0.332 -0.062 -0.665 -0.073 -1 -0.032 -0.677 -0.103 -1.243 -0.41 -1.698 -0.92a4.981 4.981 0 0 0 -0.444 -0.667c-0.003 -0.166 -0.029 -0.324 -0.079 -0.476h-0.095c-0.069 -1.327 0.492 -2.295 1.682 -2.904 0.024 -0.021 0.034 -0.048 0.032 -0.079Z"/></g></svg>