<svg xmlns="http://www.w3.org/2000/svg" version="1.1" width="64px" height="64px" style="shape-rendering:geometricPrecision; text-rendering:geometricPrecision; image-rendering:optimizeQuality; fill-rule:evenodd; clip-rule:evenodd" xmlns:xlink="http://www.w3.org/1999/xlink" viewBox="0 0 64px 64px">
<g><path style="opacity:0.6" fill="#000000" d="M19.641 -0.016h24.75c0.053 0.137 0.158 0.204 0.313 0.203 0.445 0.271 0.84 0.61 1.188 1.016a0.937 0.937 0 0 1 0.172 0.313c0.093 0.053 0.135 0.136 0.125 0.25l0.094 0.063c0.011 0.095 0.027 0.188 0.047 0.281 0.012 0.044 0.037 0.075 0.078 0.094a39.568 39.568 0 0 0 0.141 1.109c0.006 0.102 -0.015 0.196 -0.063 0.281 0.01 0.016 0.021 0.031 0.031 0.047 1.353 0.026 2.707 0.042 4.063 0.047 0.198 0.086 0.407 0.128 0.625 0.125 0.038 0.054 0.09 0.086 0.156 0.094 0.207 0.05 0.416 0.102 0.625 0.156 1.683 0.703 2.948 1.865 3.797 3.484 0.065 0.154 0.122 0.31 0.172 0.469 0.026 0.028 0.057 0.038 0.094 0.031 -0.005 0.094 0 0.188 0.016 0.281 0.088 0.117 0.13 0.252 0.125 0.406l0.141 0.219c0.042 16.552 0.042 33.104 0 49.656 -0.057 0.028 -0.098 0.07 -0.125 0.125 -0.022 0.124 -0.037 0.249 -0.047 0.375 -0.087 0.108 -0.129 0.233 -0.125 0.375 -0.092 0.081 -0.134 0.185 -0.125 0.313 -0.073 0.125 -0.146 0.25 -0.219 0.375 -0.033 0.158 -0.105 0.293 -0.219 0.406a0.647 0.647 0 0 0 -0.063 0.188c-0.086 0.031 -0.128 0.094 -0.125 0.188a5.579 5.579 0 0 0 -0.516 0.688c-0.302 0.292 -0.604 0.583 -0.906 0.875a28.628 28.628 0 0 0 -0.906 0.641 17.036 17.036 0 0 1 -1.031 0.5c-0.134 -0.007 -0.249 0.035 -0.344 0.125 -0.128 0.007 -0.253 0.028 -0.375 0.063 -0.067 0.028 -0.108 0.074 -0.125 0.141h-38.25c-0.03 -0.053 -0.072 -0.1 -0.125 -0.141 -1.676 -0.453 -3.015 -1.396 -4.016 -2.828a0.154 0.154 0 0 1 -0.016 -0.094c-0.037 0.007 -0.068 -0.003 -0.094 -0.031l-0.063 -0.188c-0.215 -0.306 -0.382 -0.639 -0.5 -1 -0.026 -0.028 -0.057 -0.038 -0.094 -0.031 0.005 -0.084 0 -0.167 -0.016 -0.25 -0.006 -0.056 -0.032 -0.098 -0.078 -0.125a1.628 1.628 0 0 1 -0.047 -0.313 0.926 0.926 0 0 0 -0.141 -0.188c-0.042 -16.563 -0.042 -33.125 0 -49.688a0.468 0.468 0 0 1 0.109 -0.094 2.153 2.153 0 0 0 0.063 -0.438c0.036 -0.016 0.062 -0.042 0.078 -0.078a2.057 2.057 0 0 0 0.047 -0.266 0.205 0.205 0 0 1 0.094 -0.094l0.031 -0.219 0.219 -0.375 0.031 -0.156c0.073 -0.103 0.145 -0.207 0.219 -0.313 -0.003 -0.094 0.039 -0.156 0.125 -0.188a0.645 0.645 0 0 1 0.063 -0.188c0.152 -0.127 0.267 -0.283 0.344 -0.469a12.409 12.409 0 0 1 1.047 -1.047 10.745 10.745 0 0 1 1.125 -0.75 1.707 1.707 0 0 0 0.219 -0.063c0.19 -0.133 0.399 -0.238 0.625 -0.313 0.124 0.004 0.228 -0.038 0.313 -0.125l0.281 -0.031c0.066 -0.008 0.118 -0.039 0.156 -0.094 0.218 0.003 0.427 -0.039 0.625 -0.125 1.365 -0.016 2.729 -0.021 4.094 -0.016 -0.005 -0.406 0 -0.813 0.016 -1.219 0.089 -0.119 0.131 -0.255 0.125 -0.406 0.077 -0.101 0.118 -0.216 0.125 -0.344l0.094 -0.063a1.014 1.014 0 0 1 0.047 -0.188c0.026 -0.028 0.057 -0.038 0.094 -0.031 0.096 -0.223 0.232 -0.421 0.406 -0.594a3.292 3.292 0 0 1 0.656 -0.5 1.852 1.852 0 0 1 0.469 -0.203 0.287 0.287 0 0 0 0.063 -0.141Zm1.906 3.813h21v3.625c-7 0.005 -14 0 -21 -0.016 -0.078 -0.038 -0.083 -0.085 -0.016 -0.141 0.021 -1.104 0.021 -2.208 0 -3.313 -0.063 -0.059 -0.058 -0.111 0.016 -0.156Zm-7 3.75h3c-0.005 0.406 0 0.813 0.016 1.219l0.063 0.063c0.027 0.241 0.09 0.47 0.188 0.688 0.09 0.042 0.132 0.115 0.125 0.219a3.361 3.361 0 0 1 0.375 0.5c0.307 0.323 0.656 0.588 1.047 0.797 0.109 0.012 0.202 0.053 0.281 0.125 0.14 0.004 0.265 0.045 0.375 0.125 8 0.021 16 0.021 24 0 0.107 -0.087 0.233 -0.129 0.375 -0.125a0.711 0.711 0 0 1 0.313 -0.141c0.135 -0.078 0.271 -0.156 0.406 -0.234 0.326 -0.274 0.623 -0.581 0.891 -0.922 0.019 -0.099 0.071 -0.172 0.156 -0.219 -0.01 -0.114 0.032 -0.197 0.125 -0.25 0.009 -0.1 0.025 -0.199 0.047 -0.297 0.016 -0.037 0.042 -0.063 0.078 -0.078 0.042 -0.37 0.088 -0.74 0.141 -1.109 0.006 -0.102 -0.015 -0.196 -0.063 -0.281 0.013 -0.03 0.033 -0.05 0.063 -0.063 0.979 -0.021 1.958 -0.021 2.938 0a5.792 5.792 0 0 0 0.813 0.125c0.563 0.175 1.048 0.482 1.453 0.922a2.241 2.241 0 0 0 0.281 0.344c-0.003 0.096 0.033 0.168 0.109 0.219 0.098 0.204 0.187 0.413 0.266 0.625 0.01 0.135 0.021 0.271 0.031 0.406 0.062 0.117 0.093 0.242 0.094 0.375 0.005 0.609 0.01 1.219 0.016 1.828 -0.065 15.109 -0.112 30.219 -0.141 45.328 -0.089 0.119 -0.131 0.255 -0.125 0.406 -0.117 0.244 -0.242 0.484 -0.375 0.719 -0.434 0.548 -0.981 0.939 -1.641 1.172 -0.286 0.013 -0.567 0.054 -0.844 0.125 -11.635 0.021 -23.271 0.021 -34.906 0a4.192 4.192 0 0 0 -0.844 -0.125c-0.066 -0.008 -0.118 -0.039 -0.156 -0.094 -0.073 -0.01 -0.146 -0.021 -0.219 -0.031 -0.823 -0.38 -1.375 -1 -1.656 -1.859 -0.041 -0.018 -0.067 -0.05 -0.078 -0.094 -0.003 -0.28 -0.045 -0.551 -0.125 -0.813l-0.016 -2.016c0.063 -15.047 0.11 -30.094 0.141 -45.141 0.089 -0.119 0.131 -0.255 0.125 -0.406a7.397 7.397 0 0 1 0.375 -0.719c0.346 -0.459 0.778 -0.807 1.297 -1.047 0.098 0.001 0.181 -0.03 0.25 -0.094 0.324 -0.023 0.636 -0.08 0.938 -0.172Z"/></g>
<g><path style="opacity:0.6" fill="#000000" d="M26.922 15.578a7.039 7.039 0 0 1 1.375 0.156c0.069 0.149 0.183 0.217 0.344 0.203a0.414 0.414 0 0 1 0.094 0.156 7.406 7.406 0 0 1 0.359 0.266 5.383 5.383 0 0 1 0.406 0.563c0.081 0.213 0.18 0.417 0.297 0.609a0.299 0.299 0 0 1 -0.094 0.094c0.021 0.094 0.062 0.188 0.125 0.281a16.021 16.021 0 0 1 -0.172 1.016c-0.019 0.07 -0.061 0.122 -0.125 0.156 -0.087 0.252 -0.222 0.471 -0.406 0.656 -0.008 0.066 -0.039 0.118 -0.094 0.156l-0.031 -0.031a2.685 2.685 0 0 0 -0.359 0.328 4.674 4.674 0 0 0 -0.781 0.375 18.37 18.37 0 0 1 -0.719 0.281l-0.094 0.094a2.939 2.939 0 0 0 -0.531 0.234 0.114 0.114 0 0 1 -0.047 -0.031c-0.054 0.066 -0.122 0.113 -0.203 0.141 -0.256 0.085 -0.491 0.205 -0.703 0.359a0.114 0.114 0 0 0 -0.047 -0.031 16.619 16.619 0 0 1 -0.875 0.391l-0.094 0.094c-0.312 0.124 -0.625 0.249 -0.938 0.375 -0.043 0.077 -0.1 0.103 -0.172 0.078a12.593 12.593 0 0 0 -0.5 0.281l-0.031 -0.031a6.183 6.183 0 0 0 -0.641 0.328l-0.156 0.031a4.237 4.237 0 0 1 -0.688 0.359 0.114 0.114 0 0 1 -0.047 -0.031c-0.06 0.1 -0.149 0.146 -0.266 0.141 -0.058 0.071 -0.126 0.097 -0.203 0.078 -0.451 0.31 -0.93 0.446 -1.438 0.406a2.03 2.03 0 0 1 -0.219 0.063 52.61 52.61 0 0 0 -0.859 -0.297c-0.084 -0.094 -0.189 -0.157 -0.313 -0.188L17.656 23.266c-0.11 -0.211 -0.256 -0.388 -0.438 -0.531a1.016 1.016 0 0 0 -0.094 -0.219c-0.014 -0.293 -0.061 -0.585 -0.141 -0.875a24.443 24.443 0 0 1 0.172 -0.844c0.082 -0.102 0.134 -0.217 0.156 -0.344 0.139 -0.285 0.342 -0.509 0.609 -0.672 0.063 -0.104 0.146 -0.188 0.25 -0.25a7.853 7.853 0 0 1 1.25 -0.563 14.998 14.998 0 0 1 1.5 -0.688 24.237 24.237 0 0 1 0.844 -0.438c0.115 0 0.204 -0.047 0.266 -0.141l0.031 0.031a10.158 10.158 0 0 1 0.859 -0.391 0.36 0.36 0 0 0 0.141 -0.109c0.087 0.04 0.155 0.014 0.203 -0.078a3.592 3.592 0 0 0 0.813 -0.375 9.039 9.039 0 0 1 0.938 -0.375l0.109 -0.109c0.013 0.014 0.029 0.025 0.047 0.031a49.264 49.264 0 0 1 0.656 -0.359c0.114 0.01 0.197 -0.032 0.25 -0.125 0.05 -0.022 0.097 -0.017 0.141 0.016 0.047 -0.026 0.083 -0.063 0.109 -0.109a3.716 3.716 0 0 1 0.594 -0.172Z"/></g>
<g><path style="opacity:0.6" fill="#000000" d="M36.703 15.734c0.344 -0.01 0.688 0 1.031 0.031 0.096 0.116 0.221 0.173 0.375 0.172 0.021 0.021 0.042 0.042 0.063 0.063 0.155 0.05 0.312 0.102 0.469 0.156 0.315 0.231 0.659 0.408 1.031 0.531a28.279 28.279 0 0 0 2.25 1.125c0.085 0.063 0.168 0.125 0.25 0.188 0.349 0.096 0.672 0.253 0.969 0.469 0.167 0.063 0.333 0.125 0.5 0.188 0.087 0.085 0.191 0.137 0.313 0.156a0.356 0.356 0 0 0 0.063 0.078c0.141 0.065 0.287 0.123 0.438 0.172a20.887 20.887 0 0 0 1.656 0.875 8.62 8.62 0 0 1 0.609 0.547 1.156 1.156 0 0 0 0.234 0.313c0.045 0.217 0.128 0.415 0.25 0.594a5.67 5.67 0 0 1 0 1.188c-0.102 0.126 -0.149 0.272 -0.141 0.438a61.115 61.115 0 0 1 -0.734 0.891 4.061 4.061 0 0 1 -0.563 0.375c-0.157 0.021 -0.303 0.073 -0.438 0.156 -0.161 0.031 -0.322 0.057 -0.484 0.078a3.617 3.617 0 0 0 -0.641 -0.078 24.288 24.288 0 0 1 -2.563 -1.25 1.921 1.921 0 0 0 -0.406 -0.125c-0.178 -0.116 -0.355 -0.23 -0.531 -0.344a2.301 2.301 0 0 0 -0.438 -0.156c-0.527 -0.29 -1.058 -0.571 -1.594 -0.844a1.269 1.269 0 0 1 -0.406 -0.156 3.779 3.779 0 0 0 -0.484 -0.266 0.765 0.765 0 0 1 -0.109 -0.109c-0.347 -0.094 -0.67 -0.251 -0.969 -0.469a1.243 1.243 0 0 1 -0.375 -0.172c-0.018 0.007 -0.034 0.017 -0.047 0.031a4.087 4.087 0 0 1 -0.969 -0.719 3.431 3.431 0 0 0 -0.375 -0.531c-0.017 0.083 -0.001 0.162 0.047 0.234 -0.005 0.047 -0.031 0.073 -0.078 0.078 -0.073 -0.052 -0.146 -0.104 -0.219 -0.156 -0.005 -0.063 -0.01 -0.125 -0.016 -0.188 0.041 -0.156 0.083 -0.312 0.125 -0.469 -0.063 -0.34 -0.078 -0.684 -0.047 -1.031 0.257 -0.986 0.866 -1.637 1.828 -1.953 0.064 -0.016 0.106 -0.052 0.125 -0.109Z"/></g><g><path style="opacity:0.004" fill="#000000" d="M35.984 15.859c0.141 -0.005 0.152 0.015 0.031 0.063 -0.025 -0.014 -0.035 -0.035 -0.031 -0.063Z"/></g>
<g><path style="opacity:0.6" fill="#000000" d="M26.391 25.641a9.593 9.593 0 0 1 1.219 0.047 1.098 1.098 0 0 1 0.313 0.156l0.188 0.031c0.023 0.118 0.096 0.17 0.219 0.156a0.435 0.435 0 0 0 0.094 0.125c0.093 0.051 0.187 0.103 0.281 0.156a12.541 12.541 0 0 0 0.5 0.547c0.618 0.997 0.624 1.997 0.016 3a24.547 24.547 0 0 1 -0.516 0.578 1.635 1.635 0 0 0 -0.344 0.266 1.272 1.272 0 0 0 -0.438 0.25 16.02 16.02 0 0 1 -2 0 2.127 2.127 0 0 0 -0.469 -0.266 4.883 4.883 0 0 1 -0.484 -0.422 2.345 2.345 0 0 0 -0.344 -0.406c-0.039 -0.139 -0.112 -0.253 -0.219 -0.344l-0.031 -0.219c-0.035 -0.048 -0.082 -0.069 -0.141 -0.063v-1.688c0.041 0.005 0.078 -0.005 0.109 -0.031a1.437 1.437 0 0 0 0.063 -0.313c0.204 -0.32 0.449 -0.617 0.734 -0.891a5.183 5.183 0 0 0 0.375 -0.281c0.113 0.001 0.186 -0.051 0.219 -0.156 0.153 -0.013 0.288 -0.066 0.406 -0.156a3.999 3.999 0 0 0 0.25 -0.078Z"/></g>
<g><path style="opacity:0.6" fill="#000000" d="M36.641 25.641a5.752 5.752 0 0 0 1.063 0c0.158 0.006 0.293 0.063 0.406 0.172 0.095 0.017 0.188 0.038 0.281 0.063 0.021 0.042 0.042 0.083 0.063 0.125a0.644 0.644 0 0 1 0.188 0.063c0.343 0.258 0.645 0.561 0.906 0.906a2.041 2.041 0 0 1 0.047 0.172c0.032 0.026 0.068 0.037 0.109 0.031 0.016 0.093 0.031 0.187 0.047 0.281 0.022 0.046 0.059 0.067 0.109 0.063 0.01 0.573 0 1.146 -0.031 1.719a0.226 0.226 0 0 0 -0.078 0.063 1.435 1.435 0 0 0 -0.063 0.313c-0.049 -0.018 -0.091 0.003 -0.125 0.063 -0.023 0.061 -0.018 0.118 0.016 0.172l-0.094 0.031c-0.345 0.454 -0.772 0.813 -1.281 1.078a16.02 16.02 0 0 1 -2 0c-0.119 -0.124 -0.265 -0.202 -0.438 -0.234a9.626 9.626 0 0 0 -0.5 -0.422c-0.063 -0.062 -0.109 -0.135 -0.141 -0.219a1.266 1.266 0 0 0 -0.203 -0.188 1.171 1.171 0 0 0 -0.234 -0.375c0.007 -0.134 -0.035 -0.249 -0.125 -0.344a0.698 0.698 0 0 1 -0.047 -0.234c0.03 -0.422 0.035 -0.844 0.016 -1.266 0.008 -0.066 0.039 -0.118 0.094 -0.156a1.435 1.435 0 0 0 0.063 -0.313c0.21 -0.318 0.455 -0.615 0.734 -0.891 0.11 -0.089 0.225 -0.172 0.344 -0.25 0.13 -0.007 0.213 -0.07 0.25 -0.188a1.343 1.343 0 0 0 0.281 -0.063c0.109 -0.075 0.224 -0.133 0.344 -0.172Z"/></g>
<g><path style="opacity:0.6" fill="#000000" d="M30.016 39.359c1.574 -0.019 3.147 0.007 4.719 0.078 -0.033 0.054 -0.012 0.085 0.063 0.094 0.229 0.01 0.458 0.021 0.688 0.031 -0.041 0.043 -0.031 0.075 0.031 0.094 0.145 0.016 0.291 0.021 0.438 0.016 -0.004 0.051 0.017 0.087 0.063 0.109 0.145 0.016 0.291 0.021 0.438 0.016v0.094c0.166 0.021 0.332 0.037 0.5 0.047 -0.027 0.049 -0.006 0.08 0.063 0.094 0.094 0.01 0.188 0.021 0.281 0.031 -0.027 0.049 -0.006 0.08 0.063 0.094 0.094 0.01 0.188 0.021 0.281 0.031 -0.027 0.049 -0.006 0.08 0.063 0.094 0.094 0.01 0.188 0.021 0.281 0.031 -0.027 0.049 -0.006 0.08 0.063 0.094 0.094 0.01 0.188 0.021 0.281 0.031 -0.042 0.021 -0.042 0.042 0 0.063 0.094 0.026 0.188 0.052 0.281 0.078 0.007 0.018 0.017 0.034 0.031 0.047 0.073 0.01 0.146 0.021 0.219 0.031 0.01 0.031 0.021 0.063 0.031 0.094 0.083 0.016 0.166 0.021 0.25 0.016v0.125c0.094 -0.005 0.188 0 0.281 0.016 -0.042 0.031 -0.042 0.063 0 0.094 0.083 0.016 0.166 0.021 0.25 0.016v0.125c0.094 -0.005 0.188 0 0.281 0.016 -0.042 0.031 -0.042 0.063 0 0.094 0.062 0.016 0.124 0.021 0.188 0.016v0.125h0.219v0.125c0.074 -0.005 0.147 0 0.219 0.016 -0.042 0.031 -0.042 0.063 0 0.094 0.062 0.016 0.124 0.021 0.188 0.016v0.125c0.074 -0.005 0.147 0 0.219 0.016 -0.042 0.031 -0.042 0.063 0 0.094 0.062 0.016 0.124 0.021 0.188 0.016 -0.005 0.041 0.005 0.078 0.031 0.109 0.063 0.01 0.125 0.021 0.188 0.031 -0.03 0.022 -0.035 0.048 -0.016 0.078 0.054 0.023 0.112 0.039 0.172 0.047 -0.042 0.031 -0.042 0.063 0 0.094 0.063 0.01 0.125 0.021 0.188 0.031 -0.042 0.031 -0.042 0.063 0 0.094 0.04 0.015 0.082 0.021 0.125 0.016 -0.005 0.041 0.005 0.078 0.031 0.109 0.052 0.01 0.104 0.021 0.156 0.031 -0.03 0.036 -0.019 0.067 0.031 0.094 0.052 0.01 0.104 0.021 0.156 0.031 -0.042 0.031 -0.042 0.063 0 0.094 0.04 0.015 0.082 0.021 0.125 0.016 -0.005 0.041 0.005 0.078 0.031 0.109 0.052 0.01 0.104 0.021 0.156 0.031 -0.042 0.021 -0.042 0.042 0 0.063a0.274 0.274 0 0 0 0.156 0.047c-0.002 0.102 0.05 0.149 0.156 0.141 -0.036 0.023 -0.036 0.049 0 0.078 0.037 0.029 0.079 0.039 0.125 0.031 -0.01 0.094 0.031 0.135 0.125 0.125 -0.01 0.094 0.031 0.135 0.125 0.125v0.094c0.082 -0.007 0.134 0.029 0.156 0.109 0.092 0.003 0.134 0.05 0.125 0.141h0.125c-0.004 0.107 0.048 0.148 0.156 0.125 -0.004 0.107 0.048 0.148 0.156 0.125v0.125c0.076 -0.012 0.097 0.009 0.063 0.063 0.064 0.045 0.096 0.108 0.094 0.188h0.125v0.125h0.125c0.013 0.079 0.018 0.152 0.016 0.219 0.031 0.042 0.063 0.042 0.094 0 0.012 0.098 0.038 0.192 0.078 0.281 0.022 -0.017 0.037 -0.037 0.047 -0.063 0.016 0.104 0.021 0.208 0.016 0.313 0.041 -0.005 0.078 0.005 0.109 0.031 0.029 0.302 0.055 0.604 0.078 0.906 -0.021 0.292 -0.047 0.584 -0.078 0.875 -0.032 0.026 -0.068 0.037 -0.109 0.031v0.281h-0.094c-0.015 0.072 -0.026 0.145 -0.031 0.219 -0.041 -0.005 -0.078 0.005 -0.109 0.031 -0.016 0.072 -0.021 0.145 -0.016 0.219h-0.125v0.125h-0.125v0.156h-0.094c-0.021 0.073 -0.042 0.146 -0.063 0.219 -0.053 -0.005 -0.105 0 -0.156 0.016 -0.042 0.031 -0.042 0.063 0 0.094 -0.062 0.016 -0.124 0.021 -0.188 0.016v0.125c-0.043 -0.005 -0.085 0 -0.125 0.016 -0.042 0.031 -0.042 0.063 0 0.094 -0.073 0.01 -0.146 0.021 -0.219 0.031 -0.042 0.031 -0.042 0.063 0 0.094 -0.083 0.016 -0.166 0.021 -0.25 0.016v0.125c-0.115 -0.005 -0.23 0 -0.344 0.016 -0.036 0.023 -0.036 0.049 0 0.078 -0.279 0.049 -0.561 0.08 -0.844 0.094 -0.292 -0.021 -0.584 -0.047 -0.875 -0.078 0.042 -0.031 0.042 -0.063 0 -0.094 -0.115 -0.01 -0.229 -0.021 -0.344 -0.031 0.042 -0.031 0.042 -0.063 0 -0.094 -0.072 -0.016 -0.145 -0.021 -0.219 -0.016v-0.125h-0.219v-0.125c-0.053 0.005 -0.105 0 -0.156 -0.016 0.036 -0.023 0.036 -0.049 0 -0.078 -0.049 -0.025 -0.101 -0.041 -0.156 -0.047 0.042 -0.031 0.042 -0.063 0 -0.094 -0.051 -0.015 -0.103 -0.021 -0.156 -0.016 0.002 -0.102 -0.05 -0.149 -0.156 -0.141 0.042 -0.031 0.042 -0.063 0 -0.094 -0.042 -0.01 -0.083 -0.021 -0.125 -0.031 0.042 -0.031 0.042 -0.063 0 -0.094a0.262 0.262 0 0 0 -0.125 -0.016v-0.125h-0.125v-0.125h-0.125c0.002 -0.102 -0.05 -0.149 -0.156 -0.141 0.03 -0.036 0.019 -0.067 -0.031 -0.094 -0.052 -0.01 -0.104 -0.021 -0.156 -0.031 0.038 -0.028 0.038 -0.054 0 -0.078 -0.051 -0.02 -0.102 -0.036 -0.156 -0.047 0.036 -0.023 0.036 -0.049 0 -0.078 -0.049 -0.025 -0.101 -0.041 -0.156 -0.047 0.042 -0.021 0.042 -0.042 0 -0.063a0.647 0.647 0 0 0 -0.188 -0.063l0.031 -0.031c-0.048 -0.059 -0.11 -0.09 -0.188 -0.094 0.03 -0.036 0.019 -0.067 -0.031 -0.094a1.851 1.851 0 0 0 -0.375 -0.156c0.042 -0.021 0.042 -0.042 0 -0.063 -0.061 -0.025 -0.123 -0.041 -0.188 -0.047 -0.007 -0.1 -0.054 -0.131 -0.141 -0.094 -0.053 -0.025 -0.079 -0.067 -0.078 -0.125 -0.074 0.005 -0.147 0 -0.219 -0.016 -0.026 -0.032 -0.037 -0.068 -0.031 -0.109h-0.25v-0.125c-0.094 0.005 -0.188 0 -0.281 -0.016 0.042 -0.031 0.042 -0.063 0 -0.094 -0.083 -0.016 -0.166 -0.021 -0.25 -0.016v-0.125c-0.125 0.005 -0.25 0 -0.375 -0.016 0.042 -0.031 0.042 -0.063 0 -0.094 -0.115 -0.01 -0.229 -0.021 -0.344 -0.031 0.042 -0.031 0.042 -0.063 0 -0.094 -0.125 -0.01 -0.25 -0.021 -0.375 -0.031 0.042 -0.031 0.042 -0.063 0 -0.094 -0.167 -0.01 -0.333 -0.021 -0.5 -0.031 0.042 -0.031 0.042 -0.063 0 -0.094 -0.177 -0.01 -0.354 -0.021 -0.531 -0.031 0.042 -0.031 0.042 -0.063 0 -0.094 -0.281 -0.01 -0.563 -0.021 -0.844 -0.031 0.083 -0.031 0.083 -0.063 0 -0.094 -0.792 -0.021 -1.583 -0.021 -2.375 0 -0.083 0.031 -0.083 0.063 0 0.094 -0.281 0.01 -0.563 0.021 -0.844 0.031 -0.042 0.031 -0.042 0.063 0 0.094 -0.177 0.01 -0.354 0.021 -0.531 0.031 -0.042 0.031 -0.042 0.063 0 0.094 -0.167 0.01 -0.333 0.021 -0.5 0.031 -0.042 0.031 -0.042 0.063 0 0.094 -0.125 0.01 -0.25 0.021 -0.375 0.031 -0.042 0.031 -0.042 0.063 0 0.094 -0.115 0.01 -0.229 0.021 -0.344 0.031 -0.042 0.031 -0.042 0.063 0 0.094 -0.125 0.016 -0.25 0.021 -0.375 0.016v0.125c-0.084 -0.005 -0.167 0 -0.25 0.016 -0.042 0.031 -0.042 0.063 0 0.094 -0.093 0.016 -0.187 0.021 -0.281 0.016v0.125h-0.25c0.005 0.041 -0.005 0.078 -0.031 0.109 -0.072 0.016 -0.145 0.021 -0.219 0.016 0.007 0.037 -0.004 0.068 -0.031 0.094 -0.05 0.003 -0.102 0.014 -0.156 0.031 -0.028 0.026 -0.038 0.057 -0.031 0.094 -0.065 0.006 -0.127 0.022 -0.188 0.047 -0.042 0.021 -0.042 0.042 0 0.063a1.848 1.848 0 0 0 -0.375 0.156c-0.051 0.027 -0.061 0.058 -0.031 0.094 -0.077 0.003 -0.14 0.035 -0.188 0.094 0.01 0.01 0.021 0.021 0.031 0.031a0.648 0.648 0 0 0 -0.188 0.063c-0.042 0.021 -0.042 0.042 0 0.063 -0.055 0.006 -0.107 0.022 -0.156 0.047 -0.036 0.029 -0.036 0.055 0 0.078 -0.054 0.011 -0.106 0.027 -0.156 0.047 -0.038 0.024 -0.038 0.05 0 0.078 -0.088 0.001 -0.161 0.032 -0.219 0.094 0.01 0.01 0.021 0.021 0.031 0.031 -0.106 -0.008 -0.158 0.038 -0.156 0.141h-0.125v0.125h-0.125v0.125a0.262 0.262 0 0 0 -0.125 0.016c-0.042 0.031 -0.042 0.063 0 0.094 -0.042 0.01 -0.083 0.021 -0.125 0.031 -0.042 0.031 -0.042 0.063 0 0.094 -0.106 -0.008 -0.158 0.038 -0.156 0.141 -0.053 -0.005 -0.105 0 -0.156 0.016 -0.042 0.031 -0.042 0.063 0 0.094 -0.055 0.006 -0.107 0.022 -0.156 0.047 -0.036 0.029 -0.036 0.055 0 0.078 -0.051 0.015 -0.103 0.021 -0.156 0.016v0.125h-0.219v0.125c-0.074 -0.005 -0.147 0 -0.219 0.016 -0.042 0.031 -0.042 0.063 0 0.094 -0.115 0.01 -0.229 0.021 -0.344 0.031 -0.042 0.031 -0.042 0.063 0 0.094a26.426 26.426 0 0 1 -0.875 0.078 6.829 6.829 0 0 1 -0.844 -0.094c0.036 -0.029 0.036 -0.055 0 -0.078 -0.114 -0.016 -0.229 -0.021 -0.344 -0.016v-0.125c-0.084 0.005 -0.167 0 -0.25 -0.016 0.042 -0.031 0.042 -0.063 0 -0.094 -0.073 -0.01 -0.146 -0.021 -0.219 -0.031 0.042 -0.031 0.042 -0.063 0 -0.094a0.262 0.262 0 0 0 -0.125 -0.016v-0.125c-0.063 0.005 -0.126 0 -0.188 -0.016 0.042 -0.031 0.042 -0.063 0 -0.094a0.406 0.406 0 0 0 -0.156 -0.016c-0.021 -0.073 -0.042 -0.146 -0.063 -0.219h-0.094v-0.156h-0.125v-0.125h-0.125c0.005 -0.074 0 -0.147 -0.016 -0.219 -0.032 -0.026 -0.068 -0.037 -0.109 -0.031a1.615 1.615 0 0 0 -0.031 -0.219h-0.094v-0.281c-0.041 0.005 -0.078 -0.005 -0.109 -0.031 -0.031 -0.291 -0.057 -0.583 -0.078 -0.875 0.023 -0.302 0.05 -0.604 0.078 -0.906 0.032 -0.026 0.068 -0.037 0.109 -0.031 -0.005 -0.105 0 -0.209 0.016 -0.313 0.01 0.025 0.025 0.046 0.047 0.063a0.995 0.995 0 0 0 0.078 -0.281c0.031 0.042 0.063 0.042 0.094 0 -0.003 -0.067 0.003 -0.14 0.016 -0.219h0.125v-0.125h0.125c-0.002 -0.08 0.029 -0.142 0.094 -0.188 -0.035 -0.053 -0.014 -0.074 0.063 -0.063v-0.125c0.108 0.023 0.16 -0.018 0.156 -0.125 0.108 0.023 0.16 -0.018 0.156 -0.125h0.125c-0.009 -0.09 0.033 -0.137 0.125 -0.141 0.022 -0.08 0.075 -0.116 0.156 -0.109v-0.094c0.094 0.01 0.135 -0.031 0.125 -0.125 0.094 0.01 0.135 -0.031 0.125 -0.125 0.046 0.008 0.088 -0.002 0.125 -0.031 0.036 -0.029 0.036 -0.055 0 -0.078 0.106 0.008 0.158 -0.038 0.156 -0.141 0.057 0 0.109 -0.015 0.156 -0.047 0.042 -0.021 0.042 -0.042 0 -0.063 0.052 -0.01 0.104 -0.021 0.156 -0.031 0.026 -0.032 0.037 -0.068 0.031 -0.109a0.262 0.262 0 0 0 0.125 -0.016c0.042 -0.031 0.042 -0.063 0 -0.094 0.088 -0.001 0.161 -0.032 0.219 -0.094 -0.01 -0.01 -0.021 -0.021 -0.031 -0.031 0.052 -0.01 0.104 -0.021 0.156 -0.031 0.026 -0.032 0.037 -0.068 0.031 -0.109a0.262 0.262 0 0 0 0.125 -0.016c0.042 -0.031 0.042 -0.063 0 -0.094 0.063 -0.01 0.125 -0.021 0.188 -0.031 0.042 -0.031 0.042 -0.063 0 -0.094 0.06 -0.008 0.118 -0.023 0.172 -0.047 0.019 -0.03 0.014 -0.056 -0.016 -0.078 0.063 -0.01 0.125 -0.021 0.188 -0.031 0.026 -0.032 0.037 -0.068 0.031 -0.109 0.063 0.005 0.126 0 0.188 -0.016 0.042 -0.031 0.042 -0.063 0 -0.094 0.072 -0.016 0.145 -0.021 0.219 -0.016v-0.125c0.063 0.005 0.126 0 0.188 -0.016 0.042 -0.031 0.042 -0.063 0 -0.094 0.072 -0.016 0.145 -0.021 0.219 -0.016v-0.125h0.219v-0.125c0.063 0.005 0.126 0 0.188 -0.016 0.042 -0.031 0.042 -0.063 0 -0.094 0.093 -0.016 0.187 -0.021 0.281 -0.016v-0.125c0.084 0.005 0.167 0 0.25 -0.016 0.042 -0.031 0.042 -0.063 0 -0.094 0.093 -0.016 0.187 -0.021 0.281 -0.016v-0.125c0.084 0.005 0.167 0 0.25 -0.016l0.031 -0.094c0.073 -0.01 0.146 -0.021 0.219 -0.031 0.014 -0.013 0.025 -0.028 0.031 -0.047 0.094 -0.026 0.188 -0.052 0.281 -0.078 0.042 -0.021 0.042 -0.042 0 -0.063 0.094 -0.01 0.188 -0.021 0.281 -0.031 0.068 -0.014 0.089 -0.045 0.063 -0.094 0.094 -0.01 0.188 -0.021 0.281 -0.031 0.068 -0.014 0.089 -0.045 0.063 -0.094 0.094 -0.01 0.188 -0.021 0.281 -0.031 0.068 -0.014 0.089 -0.045 0.063 -0.094 0.094 -0.01 0.188 -0.021 0.281 -0.031 0.068 -0.014 0.089 -0.045 0.063 -0.094 0.168 -0.01 0.334 -0.026 0.5 -0.047v-0.094a3.053 3.053 0 0 0 0.438 -0.016c0.046 -0.022 0.067 -0.059 0.063 -0.109a3.053 3.053 0 0 0 0.438 -0.016c0.062 -0.019 0.072 -0.05 0.031 -0.094 0.229 -0.01 0.458 -0.021 0.688 -0.031 0.075 -0.009 0.095 -0.04 0.063 -0.094 0.231 0.004 0.45 -0.022 0.656 -0.078Z"/></g></svg>