<?xml version="1.0" encoding="UTF-8"?>
<svg id="Layer_1" data-name="Layer 1" xmlns="http://www.w3.org/2000/svg" viewBox="0 0 1758.5 191.9">
  <path class="cls-2" fill="#4f4f4f" d="M138.25,52.38c1.94,8.69-.42,20.96-2,27-12.06,46.15-41.41,42.64-98,42v65H.25V6.38c48-.56,109.54-7.79,129,21,4.53,6.7,7,16.06,9,25ZM97.25,80.38c9.23-9.53,1.69-36.1-7-39-9.39-7.34-36.24-4.12-52-4v53c19.47.47,53.96,4.29,59-10Z"/>
  <path class="cls-2" fill="#4f4f4f" d="M202.25,6.38v180h-38V6.38h38Z"/>
  <path class="cls-2" fill="#4f4f4f" d="M365.25,52.38c1.94,8.69-.42,20.96-2,27-12.06,46.15-41.41,42.64-98,42v65h-38V6.38c48-.56,109.54-7.79,129,21,4.53,6.7,7,16.06,9,25ZM324.25,80.38c9.23-9.53,1.69-36.1-7-39-9.39-7.34-36.24-4.12-52-4v53c19.47.47,53.96,4.29,59-10Z"/>
  <path class="cls-2" fill="#4f4f4f" d="M531.25,154.38v32h-137V6.38h133v32c-10.57.08-21.39,0-31,0h-65v38h88v32c-13.04.41-19.95,0-29,0h-59v46h100Z"/>
  <path class="cls-1" fill="#52a716" d="M693.25,6.38v32h-54v148h-38V38.38h-55c.06-9.83-.08-22.18,0-32h147Z"/>
  <path class="cls-1" fill="#52a716" d="M866.25,186.38h-42v-2c-5.21-7.6-4.45-48.06-7-60-3.02-2-5.48-5.67-9-7-11.6-4.37-41.42-1.07-56-1v70h-37V6.38c42.78-.64,106.49-6.26,131,12,24.26,18.07,21.58,72.9-10,81v1h1c5.48,4.37,12.61,5.56,16,12,8.5,16.14.02,38.77,5,58,1.87,7.21,7.35,8.24,8,16ZM822.25,74.38c7.85-9.27,1.66-30.14-7-33-7.89-7.13-47.27-4.13-63-4v48c22.06.45,64.61,5.75,70-11Z"/>
  <path class="cls-1" fill="#52a716" d="M1053.25,186.38h-41c-3.67-12.33-7.34-24.67-11-37h-67c-4,12.33-8,24.67-12,37h-40v-1c21.33-59.66,42.67-119.34,64-179h44c21,59.99,42,120,63,180ZM990.25,118.38v-1l-18-54c-1.94-5.85-1.6-11.79-5-16-2.36,12.65-7.83,24.72-12,36-4.44,11.99-6.28,23.82-11,35h46Z"/>
  <path class="cls-1" fill="#52a716" d="M1230.25,124.38v2c-1.67,6-3.33,12-5,18-8.01,18.95-22.82,34.2-42,42-10.21,4.15-27.6,7.05-41,4-6.17-1.41-10.49-.22-16-2-29.65-9.6-43.89-28.47-53-59-3-10.07-7.23-29.31-4-44,8.16-37.12,17.57-64.85,49-78,53.4-22.34,106.88,10.8,112,58h-38c-5.39-25.39-34.78-42.03-62-25-21.93,13.71-29.92,60.52-17,91,8.38,19.77,37.19,38.49,63,21,5.53-3.75,11.3-12.54,14-19,.67-3,1.33-6,2-9h38Z"/>
  <path class="cls-1" fill="#52a716" d="M1420.25,186.38h-49c-9.88-20.51-28.97-40.52-42-59-4.12-5.84-7.39-15.89-14-19-3.65,5.42-14.8,12.08-17,17v61h-37V6.38h37v73h1c13.09-20.42,35-36.04,51-54,3.83-4.3,12.24-16.87,17-19h48v1c-6.62,4.3-11.49,11.49-17,17-12.67,12.66-25.33,25.33-38,38-3.99,3.99-17.83,13.52-16,19,3.76,11.33,15.46,20.74,22,30,11.89,16.84,23.12,33.14,35,50,5.9,8.37,13.54,16.02,19,25Z"/>
  <path class="cls-1" fill="#52a716" d="M1576.25,154.38v32h-137V6.38h133v32c-10.82.33-21.39,0-31,0h-65v38h88v32c-10.04.16-19.95,0-29,0h-59v46h100Z"/>
  <path class="cls-1" fill="#52a716" d="M1758.25,186.38h-42v-2c-5.21-7.6-4.45-48.06-7-60-3.02-2-5.48-5.67-9-7-11.6-4.37-41.42-1.07-56-1v70h-37V6.38c42.78-.64,106.49-6.26,131,12,24.26,18.07,21.58,72.9-10,81v1h1c5.48,4.37,12.61,5.56,16,12,8.5,16.14.02,38.77,5,58,1.87,7.21,7.35,8.24,8,16ZM1714.25,74.38c7.85-9.27,1.66-30.14-7-33-7.89-7.13-47.27-4.13-63-4v48c22.06.45,64.61,5.75,70-11Z"/>
</svg>