<?xml version="1.0" encoding="UTF-8"?>
<svg id="Layer_1" data-name="Layer 1" xmlns="http://www.w3.org/2000/svg" viewBox="0 0 1758.5 1328.54">
  <path class="cls-4" fill="#4f4f4f" d="M138.25,1189.02c1.94,8.69-.42,20.96-2,27-12.06,46.15-41.41,42.64-98,42v65H.25v-180c48-.56,109.54-7.79,129,21,4.53,6.7,7,16.06,9,25ZM97.25,1217.02c9.23-9.53,1.69-36.1-7-39-9.39-7.34-36.24-4.12-52-4v53c19.47.47,53.96,4.29,59-10Z"/>
  <path class="cls-4" fill="#4f4f4f" d="M202.25,1143.02v180h-38v-180h38Z"/>
  <path class="cls-4" fill="#4f4f4f" d="M365.25,1189.02c1.94,8.69-.42,20.96-2,27-12.06,46.15-41.41,42.64-98,42v65h-38v-180c48-.56,109.54-7.79,129,21,4.53,6.7,7,16.06,9,25ZM324.25,1217.02c9.23-9.53,1.69-36.1-7-39-9.39-7.34-36.24-4.12-52-4v53c19.47.47,53.96,4.29,59-10Z"/>
  <path class="cls-4" fill="#4f4f4f" d="M531.25,1291.02v32h-137v-180h133v32c-10.57.08-21.39,0-31,0h-65v38h88v32c-13.04.41-19.95,0-29,0h-59v46h100Z"/>
  <path class="cls-1" fill="#52a716" d="M693.25,1143.02v32h-54v148h-38v-148h-55c.06-9.83-.08-22.18,0-32h147Z"/>
  <path class="cls-1" fill="#52a716" d="M866.25,1323.02h-42v-2c-5.21-7.6-4.45-48.06-7-60-3.02-2-5.48-5.67-9-7-11.6-4.37-41.42-1.07-56-1v70h-37v-180c42.78-.64,106.49-6.26,131,12,24.26,18.07,21.58,72.9-10,81v1h1c5.48,4.37,12.61,5.56,16,12,8.5,16.14.02,38.77,5,58,1.87,7.21,7.35,8.24,8,16ZM822.25,1211.02c7.85-9.27,1.66-30.14-7-33-7.89-7.13-47.27-4.13-63-4v48c22.06.45,64.61,5.75,70-11Z"/>
  <path class="cls-1" fill="#52a716" d="M1053.25,1323.02h-41c-3.67-12.33-7.34-24.67-11-37h-67c-4,12.33-8,24.67-12,37h-40v-1c21.33-59.66,42.67-119.34,64-179h44c21,59.99,42,120,63,180ZM990.25,1255.02v-1l-18-54c-1.94-5.85-1.6-11.79-5-16-2.36,12.65-7.83,24.72-12,36-4.44,11.99-6.28,23.82-11,35h46Z"/>
  <path class="cls-1" fill="#52a716" d="M1230.25,1261.02v2c-1.67,6-3.33,12-5,18-8.01,18.95-22.82,34.2-42,42-10.21,4.15-27.6,7.05-41,4-6.17-1.41-10.49-.22-16-2-29.65-9.6-43.89-28.47-53-59-3-10.07-7.23-29.31-4-44,8.16-37.12,17.57-64.85,49-78,53.4-22.34,106.88,10.8,112,58h-38c-5.39-25.39-34.78-42.03-62-25-21.93,13.71-29.92,60.52-17,91,8.38,19.77,37.19,38.49,63,21,5.53-3.75,11.3-12.54,14-19,.67-3,1.33-6,2-9h38Z"/>
  <path class="cls-1" fill="#52a716" d="M1420.25,1323.02h-49c-9.88-20.51-28.97-40.52-42-59-4.12-5.84-7.39-15.89-14-19-3.65,5.42-14.8,12.08-17,17v61h-37v-180h37v73h1c13.09-20.42,35-36.04,51-54,3.83-4.3,12.24-16.87,17-19h48v1c-6.62,4.3-11.49,11.49-17,17-12.67,12.66-25.33,25.33-38,38-3.99,3.99-17.83,13.52-16,19,3.76,11.33,15.46,20.74,22,30,11.89,16.84,23.12,33.14,35,50,5.9,8.37,13.54,16.02,19,25Z"/>
  <path class="cls-1" fill="#52a716" d="M1576.25,1291.02v32h-137v-180h133v32c-10.82.33-21.39,0-31,0h-65v38h88v32c-10.04.16-19.95,0-29,0h-59v46h100Z"/>
  <path class="cls-1" fill="#52a716" d="M1758.25,1323.02h-42v-2c-5.21-7.6-4.45-48.06-7-60-3.02-2-5.48-5.67-9-7-11.6-4.37-41.42-1.07-56-1v70h-37v-180c42.78-.64,106.49-6.26,131,12,24.26,18.07,21.58,72.9-10,81v1h1c5.48,4.37,12.61,5.56,16,12,8.5,16.14.02,38.77,5,58,1.87,7.21,7.35,8.24,8,16ZM1714.25,1211.02c7.85-9.27,1.66-30.14-7-33-7.89-7.13-47.27-4.13-63-4v48c22.06.45,64.61,5.75,70-11Z"/>
  <path class="cls-3" fill="#9cad8d" d="M1340.25,495.02c.75,21.25,1,25,1,46-.23,8.41-.83,13.71-1,19-.75,5.83-1,13.91-2,20-1.2,6.95-1.71,12.5-4,20-11.14,36.41-24.2,67.01-43,96-1.17,2.83-3,5.83-5,9-3.27,6.88-17.12,29.48-19.25,29.01-11.61-2.57-13.83-3.26-17.15-4.2-7.48-2.12-12.18-3.29-18.6-4.81-2.79-.66-7.81-2-12-3-7.62-1.83-10.1-2.82-18-5-3.47-.96-11.36-2.96-16-4-8.44-2.54-9.77-2.47-20.96-4.98-3.89-.96-9.33-2.84-13.04-4.02-6.24-1.99-8.25-2.03-18-5-2.65-.81-8.54-2.12-11.79-3.11-4.25-1.31-3.72-.77-9.89-2.84-3.71-1.17-3.45-1.17-7.32-2.05,2.47-3.86,7.67-11,8-12,8.93-10.17,16.8-30.37,23-44,6.63-14.59,15.35-32.17,19-49,2.62-12.1,3.28-19.45,4-32,1.34-23.39,1.39-49.44-3-71-.83-5.5-2-8.84-3-14-8.37-23.86-15.95-49-29-69-11.22-17.19-24.78-31.84-37-48-9.25-12.23-25.15-23.71-37-34-4.84-4.2-11.12-8.72-16-12-9.33-6.28-19.38-12.13-29-18-2.03-1.24-4.04-2.98-6-4-2.67-1.5-5.17-3.17-7-4-2.44-1.15-5.88-3.95-8-5-3.92-1.94-6.07-3.46-10-5-3.56-1.4-3.55-.98-8.85-4.04-3.66-1.49-6.66-2.83-10.15-3.96-1.64-.6-5.74-1.66-7.12-2.3-3.75-1.76-5.65-1.98-9.88-3.7-2-.82-8.15-3.32-10-4-7.77-2.86-9.38-2.76-17-5-5.28-1.56-8.56-2.18-15-4-5.29-1.26-10.7-2.7-15-3-1.23-.63-6.78-1.45-9-2-4.65-1.16-12.47-2.56-17-3-4.14-.68-10.79-1.7-14.15-2.21-4.36-.59-7.74-1-11.83-1.8-7.9-.89-12.17-1.34-20.02-1.99-17.2-2.21-38.67-1.16-56,0-8.49.33-17.14,1.13-23.19,1.45-3.39.09-8.9,1.01-11.81,1.55-4.67.83-8.17,1.16-13,2-5.01.78-9.88,1.37-14,2-6.58,1.08-6.42,1.16-12,2-3.03.59-7.65,1.34-10,2-7.86,2.2-3.92.81-13,3-3.15.76-9.02,2.1-12,3-8.29,2.49-8.13,2.1-16,5-1.62.59-8.72,3.23-10,4-4,1-6,3-10,4-2.14.97-7.81,3.17-10,4-57.92,21.83-103.27,53.24-143,93-5.54,5.54-9.11,10.28-14,16-3.13,3.65-8.26,10.01-11,14-10.7,15.55-23.46,35.46-31,53-7.59,17.64-16.73,39.4-20,59-3,17.95-2.27,51.95-2,67,0,4.33,1.17,14.83,2,20,2.22,12.2,3.53,19.94,7,32,1.16,4.15,3.44,9.72,5,15,.85,2.07,3.14,8.3,4,10,1.66,4,3.17,7,5,11,4.71,9.13,11.73,19.16,17,27,26.33,39.19,42.43,58.46,79,85,3.99,2.98,5.49,3.93,7.37,5.3,4.79,2.86,9.46,5.53,13.63,7.7,9.94,6.62,15.08,10.43,26,16,3,1.5,6.83,3.16,10,5,3.29,1.37,6.39,2.75,10,5,3.66,1.83,5.33,2.16,7,3,1.73.95,4.44,2.24,6,3,3.33,1.66,5,2.33,9,3,2.19.84,6.83,3.09,9,4,4.5,1.87,4.9,2.13,10,4,2.17.8,6.83,2.19,9,3,7.07,2.62,8.86,2.52,16,5,1.48.51,7.8,2.51,9,3,2.73,1.11,12.56,2.38,15,3,5,.33,6,1.66,11,2,1.2.5,7.51,1.51,9,2,5,.66,8.5,1.5,14,2,5.46.82,10.93.78,15,1,10.89.59,25.04-.56,28,2,1.57,1.36,5.92,4.62,7,6,1.83,1.83,3,3.16,4,4,2.19,2.13,4.23,3.81,6,6,2,2.16,7,6.33,8,8,6.81,7.57,9.71,8.79,16,17,9.19,11.99,20.12,21.66,31,39-11.59.03-20.07.13-34.89-.96-3.11-.47-9.86-1.1-13.11-2.04-7.67-.84-12.34-1.67-20-3-1.49-.5-12.3-3-16-4-8.13-1.89-13.28-2.6-27.98-6.27-3.77-1.24-8.32-2.52-13.02-3.73-4-1.17-7.5-1.84-11-3-1.9-.81-5.95-2.24-8.62-3.07-4.16-1.32-7.49-1.94-13.38-3.93-1.18-.55-6.51-2.44-8-3-5.81-2.17-8.1-2.82-14-5-3.35-1.24-7.14-2.58-11-4-3.67-1.17-9.17-3.67-13-5-101.78-49.37-187.38-113.88-229-223-2.22-5.82-2.54-8.64-5-18-2.45-9.31-5.51-19.28-7.73-28.96-1.6-6.71-2.94-13.38-3.27-19.04-.48-2.89-1.73-9.35-2-14-1.2-18.98-.81-18.34-1-35,0-12,0-16.75,1-31,.43-4.96,1.07-13.9,2-17,.33-5.67,1.67-7.34,2-13,4.54-15.46,8.45-30.21,14-46,1.35-3.85,4.41-10.23,6-14,9.49-22.57,20.02-41.86,33-61,3.35-4.94,8.4-9.92,13-16,63.39-83.96,146.73-133.7,255-172,8.16-3.25,16.33-4.75,26-7,2.31-.79,8.81-1.25,11-2,3.91-1.25,6.33-1.25,10-2,1.89-.48,6.1-1.52,8-2,4.66-1,7.83-1.25,13-2,2.92-.87,5.98-1.53,9-2,13.81-2.16,20.52-2.52,31-4,27.24-3.85,57.05-4,89-4,11,0,13,1,24,1,1.14.49,7.03.74,13,1,7.91,1,12.83,1.5,20,2,6.03.44,10.79.65,16,1,6.25,1,9.25,1,15,2,5.11,1.08,9.25,1.43,13,2,5.58,1,8.17,1.75,13,3,1.5.41,3.32.57,5,1,3.66,0,6.33,1,10,2,5.02,1.29,9.37,2.68,10.65,3.01,8.8,2.28,7.33,1.95,14.35,3.99,3.81,1.1,7.72,2.47,10,3,7.61,1.77,9.08,2.33,15,5,1.69.76,5.88,2.17,8,3,3,1.41,4.75,2.08,9,4,2.19.85,7.83,3.09,10,4,5.06,2.12,6.1,2.49,10,4,2.75,1.33,4.75,1.91,8,3,5.16,2,4.08,1.5,9,4,1.54.82,7.36,3.13,9,4,3,.66,4,2.33,7,3,1.72.83,5.44,3,7,4,3.05,1.97,4.54,3.2,8,5,5.29,2.76,11.09,6.75,16,10,3.83,1.75,4.67,3,9,5,3.25,2.66,5,3.33,7,5,7.2,4.54,8.6,4.78,15,9,1.66,2,5.08,4,8.25,6.41,5.78,5.04,4.91,4.56,9.75,7.59,3.17,2.33,5.33,3.41,8,6,2.25,2.41,6.75,6.08,9,8,5.36,5.41,8.8,9.29,15,15,21.51,19.82,37.22,38.89,54,62,6.59,9.08,10.55,18.95,15,28,11.67,23.77,20.97,47.96,29,76,2.89,10.1,4.43,18.04,7.01,31.9.71,3.87,1.19,8.08,1.99,13.1Z"/>
  <path class="cls-2" fill="#7aa959" d="M1076.25,442.02c7.01,17.89,19.77,66.02,17,91,0,9.66-2,19.33-2,29-.61,2.12-.41,6.15-1,8-.33,5-2.67,9-3,14-2.99,10.52-7.77,21.59-11,31-.72,2.28-1.14,4.14-2,6-1.58,3.43-4.29,8.2-6,12-3.18,7.08-18.83,33.73-24,41-5.37-.7-10.29-2.06-13-3-10.35-2.92-7.73-2.17-15-4-3-.8-7.8-1.6-13-3-3.25-.74-4.96-1.09-8-2-5.2-1.17-6.72-1.86-11-3-1.33-.36-6.67-1.64-8-2-5.49-1.36-8-1.87-13-3-2.75-.94-8.05-2.15-12-3-8.92-2.25-5.34-1.5-11-3-6.42-1.96-9.76-2.82-14-4-7.98-2.23-15.1-3.95-20-6,.86-1.9,2.19-3.44,4-7,5.56-10.13,8.47-14.59,13-23,2.76-5.14,4.45-7.8,6-11,.33-2.67,2.67-4.34,3-7,.59-1.58,1.46-4.41,2-6,.71-3.14,1.43-5,2-8,3.68-18.24,5.4-44.9.96-65.2-.57-5.43-.97-6.43-1.96-12.8-3.67-12.03-6.31-24.53-11.13-34.97-1.52-3.03-1.81-3.25-3.87-8.03-1.7-2.8-2.23-5.95-5-10-22.9-33.48-45.97-51.71-80-74-2.22-1.45-5.48-3.63-8-5-4.81-2.61-9.86-5.09-14-7-4.04-1.86-5.8-2.88-10-5-1.7-.86-8.15-2.73-11.8-4.02-8.87-3.11-11.32-3.97-19.2-5.98-5.73-1.47-7.86-1.89-14.84-3.02-6.69-1.82-4.97-1.01-13.01-2.87-2.16-.35-8.55-1.24-14.15-2.11-5.42-.5-16.84-1.63-22-2-14-1.03-15.92-.9-33-1-14,.66-27.38,2.33-42,4-3.35.63-11.86,2.63-14,3-8.38,1.44-3.91.46-16,3-1.62.34-8.71,2.52-10,3-6.35,2.33-9.14,2.89-15,5-2.72.98-8.63,3.04-11,4-5.74,2.31-5.9,2.17-11,5-1.73.96-7.98,3.97-10,5-4.24,2.16-7.24,3.84-11,6-41.44,23.77-76.51,54.21-100,96-2.53,4.5-3.87,8.98-6,14-1.72,4.03-3.71,9.5-5,14-.83,4-1.54,6.37-2,9-.41,2.19-1.28,5.75-2,8-1.33,10.66-2.54,18.83-3,30-.63,6.39-.79,14.31,0,22,1.54,15.14,7.15,33.27,12.68,45.54,13.36,29.56,30.13,52.93,55.32,71.46,2.33,2.25,1.92,2.25,5,4,1.98,1.51,4.15,3.32,6,5,1.33,1.21,3.56,2.94,6,5,4.37,2.25,2.87,1.75,6,4,3.33,2.55,3.97,3.09,7,5,2.5,1.83,4,2.79,6,4,2.58,1.46,4.09,2.52,7,4,3.46,1.41,6.92,3.46,10,5,2.85,1.73,5.38,3.07,9,5,2.79,1.33,5.33,2.04,8,3,1.79.94,3.78,2.34,6.07,3.02,7.99,2.37,4.68,1.4,10.8,2.98,3.33.87,8.3,2.97,11.13,4,3.86.99,3.02.96,8,1.98,1.49.42,6.33,1.6,8,2.02,3.71,1.12,5.67,1.5,9,2,3.02,1.1,4.96,1.29,7,2,4.02,1.4,21.64,2.8,26,3,8.35,7.73,13.42,14.05,19,20,14.09,15.01,27.78,29.77,41,42,3,3.85,4.14,5.43,8,10-9.36-.15-28.75-.49-40-2-13.45-2.15-13.63-2.17-24-4-1.65-.29-10.29-2.08-14-3-9.46-2.35-11.62-3.25-21-6-4.71-1.38-8.56-2.17-14.15-4.15-3.85-.83-4.92-1.46-8.85-2.85-2.77-1.11-3.92-.84-7-2-2-.5-2.63-.75-5-2-2.66-.81-9.97-3.47-13-5-1.69-.85-6.02-3.07-8-4-3.84-1.81-3.83-1.78-9.56-4.44-2.02-1.1-4.11-2.02-6.44-3.56-3-1-4-2-7-3-1.76-1.16-4.85-3.07-7-4-4.36-1.89-6.45-2.39-10-5-19-13.99-37.2-26.9-55-42-2.33-2.96-3.79-4.67-6-7-27.21-24.48-46.49-56.04-59.34-92.16-2.88-8.1-4.14-12.93-6.66-21.84-.8-2.8-1.85-6.02-3-11-1.21-7.67-1.67-12.34-2-19-.95-14.38-2.16-36.92,0-53,0-5,.75-8.38,2-15,1.2-4.92,2.72-11.6,4-16,2.19-7.53,2.74-9.75,5-17,1.54-4.96,4.36-10.51,6-15,.75-2.25,1.37-3.63,2-6,.93-2.51,2.61-5.61,4-8,4.62-7.93,7.15-15.53,12-23,4.16-6.42,9.22-12.33,14-19,19.78-27.6,41.73-46.67,69-67,2.59-1.94,6.34-4.56,8-6,2.79-1.96,2.79-2.71,5-4,2.55-1.55,4.57-3.62,7-5,2-.96,6-3.42,8-5,3.5-1.83,3.63-2.56,7.98-4.97,2.71-1.51,4.58-2.47,7.02-4.03,2.15-1.38,4.36-2.96,7-4,3.56-1.41,3.75-2,8-4,4.73-2.24,6.87-3.18,9-4,5.09-1.98,8.52-2.93,13-5,2.15-1,7.81-3.12,10-4,6.68-2.68,7.47-2.58,15-5,1.33-.43,8.4-2.54,10-3,8.72-2.55,8.06-2.46,14-4,2.13-.55,7.6-1.88,12.34-3.26,3.59-.5,9.19-2.56,15.66-3.74,10.78-2,4.22-.95,11-2,3.5-.63,6.87-1.38,11-2,6.62-.71,7.87-.67,10-1,11.59-1.15,33.82-2.59,44-3,25.29-.21,42.58-.54,67,1,3.84.51,5.86.5,8,1,4.12.62,4.6.25,8,1,6.3,1.46,6.28.64,12,2,4.53.8,10.17,1.55,15,3,3.94,1.02,10.68,3.2,13,4,7.34,2.51,10.47,3.54,19,6,3.6,1.13,9,2.86,12,4,6.6,2.33,5.2,1.66,11,4,1.72.94,6.88,3.19,9,4,5.79,2.2,3.67,1.36,9,4,3.33,1.66,5.27,2.33,8,4,4.08,2.13,7.09,3.79,11,6,2.17,1.22,6.48,3.81,9,5,3.99,1.88,7.17,3.33,11,6,4.16,2.9,9.41,6.63,13,9,3.66,2.33,7.33,5.26,11,8,6.07,4.07,12.06,9.99,18,15,27,22.77,58.72,53.26,73,88,1.68,4.09,4.43,9,6,13Z"/>
  <path class="cls-1" fill="#52a716" d="M903.25,526.02c-.33,6.58.13,9.34,0,15-.08,4.25-.67,13-1,13-1.27,7.61-1.71,11.08-3,17-1.94,6.76-2.54,11.17-5,17-3.29,7.79-6.1,12.92-9,18-6,10.51-7.21,12.17-13,22-6.79-1.57-10.1-2.08-14-3-3.25-1.25-7-1.5-14-3-4.83-.92-8.42-1.84-12-3-5.67-1.5-6.34-1.5-12-3-3.34-.92-6.08-1.09-9-2-4-1.25-5-1-9-2-4.16-1.14-9.25-1.84-13-3-8.53-2.65-14.17-3.33-23-6-2.75-.84-11.64-3.15-14-4-9.66-3.48-1.98.11-21-6,7.47-9.91,12.15-23.97,15-34,9.7-34.18-12.12-75.16-30.14-91.16-5.31-4.71-7.12-6.41-8.92-7.87-1.42-1.31-3.71-3.14-4.94-3.97-2.61-1.77-6.77-4.61-9-6-4.16-2.15-6.13-3.04-10-5-3.19-1.61-6.02-2.91-8-4-3.67-1.67-5.46-2.52-9-4-5.38-2-10.27-3.26-15.08-4.99-3.53-1.07-7.26-2.14-10.92-3.01-2.17-.74-16.52-3.48-25-4-13.65-.84-21.66-.82-38,1-2.28.25-17.83,2.24-20,3-6.84,2.39-7.49,2.1-16,5-3.52,1.2-7.32,2.95-10,4-1.67.64-5.21,2.29-7,3-2.68,1.44-5.49,2.14-9,4-3.54,1.87-5.51,3.2-9,5-2.29,1.56-4.9,3.12-7,5-1.75,1.29-3.75,3.08-5,4-2.78,2.35-6.9,5.19-9,7-5.8,4.99-7.29,7.03-12,12-1.76,1.85-3.56,4.78-5,7-4.05,6.22-6.43,9.16-10,16-2.31,4.41-5.58,9.95-8,19-3.06,11.41-5.33,16.38-4,36,.69,10.24,2.4,12.45,3,15,1.42,6,2.42,8.41,4,13,1.39,2.81,2.04,5.06,3,8,1.45,2.63,4.59,8.4,6.17,10.76,11.73,17.46,23.39,27.92,46.83,41.24,3.44,1.95,7.23,3.96,11,6,2.99,1.62,7.17,3.49,11.1,5.16,4.23,1.31,8.17,2.28,12.9,3.84,2.46.73,7.21,1.64,9,2,18.11,3.62,16.99,1.44,24,9,3.5,3.77,5.64,6.21,8,9,7.94,9.4,6.45,6.87,14,16,3.48,3.74,7.09,7.91,12,13,3.49,4.39,4.75,5.91,7,9,3.4,4.33,5.46,6.68,8,11-6.29,0-13.53-1.04-15-1-7.52-.96-9.09-1.58-11-2-2.44-.52-5.87-1.34-9-2-3.13-.77-1.93-.18-8.07-2.01-5.06-1.5-7.43-2.88-10.93-3.99-6.81-2.17-9-2.59-16-5-2.72-.94-6.34-2.88-9-4-4.41-1.86-6.94-3.26-12-6-1.47-.8-5.4-3.15-7-4-5.29-2.82-6.14-3.03-11-6-3-1.92-5.17-3.42-7-5-2.25-1.59-4.17-2.92-6-4-1.75-1.25-3.59-3.09-6-5-2.08-1.92-4.09-3.59-6-5-2.08-1.75-3.42-2.75-6-5-10.52-7.86-19.69-18.15-27-29-2.5-3.71-4.51-6.29-7-10-3.4-5.07-9.59-15.52-12-21-1-2-1.84-3.34-3-6-.48-1.37-1.95-4.22-3-7-1.1-2.92-1.65-4.62-2-6-.85-2.79-1.45-5.18-2-7-.36-1.57-.52-2.64-1-5-.25-1.25-.83-4.75-1-6-.35-2.97-1.93-17.42-1-26,1.91-14.92,1.33-17.92,4-31,.84-4.07,2.16-6.53,3-10,1-3.25,3.25-7.5,4-11,5.06-12.3,8.8-20.09,15-30,2.59-4.15,3.5-5.86,6-10,2.21-3.42,3.79-5.21,6-8,1.61-2.3,3.27-3.9,5-6,2.02-2.47,2.49-3.16,4-5,20.34-24.77,52.12-43.93,81-57,6.7-3.03,7.79-3.2,14-6,1.75-.79,10.88-4.31,13-5,9.91-3.21,8.4-2.42,18-5,2.76-.74,9.94-2.54,12-3,5.4-1.21,11.07-1.92,12-2,5.61-.47,6.26-1.36,15-2,9.11-.43,10.26-.53,15-1,3.13.18,5.75-.04,9,0,9.11-.13,2.37-.34,12,0,4.07.03,3.7-.1,7,0,12.77.43,12.95.65,20,1,11.99,1.09,14.19,2.18,22,3,3.41.63,12.32,2.19,15,3,8.2,2.46,10.31,2.19,18,5,2.06.75,9.32,3.2,11,4,6.66,3.18,9.09,4.16,16,7,2.69,1.1,5.36,2.76,8,4,3.73,1.74,6.37,2.93,10,5,3.12,1.77,5.59,3.28,9.78,6.02,4.72,3.35,6.26,4.19,10.22,6.98,3.29,2.19,7.91,5.19,10,7,16,13.89,16.2,14.04,30,30,2.83,3.25,9.42,11,12,15,2.73,4.19,6.58,10.57,9,15,3.67,6.72,6.62,12.86,10,21,3.18,7.68,5.38,13.73,7,20,1.9,7.44,2.64,13.78,3,20Z"/>
  <path class="cls-5" fill="#526921" d="M713.25,522.02c4.73,17.65,2.75,44.76-9,63-12.25-3.81-40.88-10.87-51-14,.97-1.93,5.38-15.49,7-21,3.28-12.55,3.43-18.97,0-32-.54-2.03-3.36-10.02-5-13-1.83-2.88-3.63-6.79-6-10-4-5.07-5.8-6.53-11-11-2.18-1.59-8.75-6-11-7-2.12-.99-8.48-4.03-11-5-5.89-2.27-6.79-2.52-12-4-3.41-.82-9.82-2.37-15-3-6.96-.57-12.66-.57-20,0-8.27.76-10.19,1.08-15,2-8.94,1.9-8.98,1.37-20,6-12.92,5.42-13.5,5.86-27,16-4.33,3.61-6.78,7.46-10,10-.12.42-4.59,6.12-8,11-2.47,2.79-3.18,5.02-7,13-3.62,15.37-6.64,16.96-1,43,1.41,4.25,6.87,16.21,9,19,1.12,1.33,3.69,4.9,5,6,2.15,1.8,5.17,5.12,8,7,2.32,1.58,1.87,1.66,4,3,1.87,1.08,1.5.66,4.79,3.02,2.28,1.39,4.12,2.13,6.21,2.98,6.56,2.65,4.79,3.05,10,4,2.47,2.91,5.14,7.2,11,14,7.71,8.68,18.5,21.53,22,27-5.26-1.6-12.46-4.14-17-6-1.94-.85-8.67-3.78-11-5-1.58-.75-8.25-4.75-11-6-3.44-1.52-15.61-8.52-21-12-1.89-1.22-10.06-8.97-19-17-10.46-9.4-19.3-29.16-23-43-3.15-11.77-1.9-31.93,5-48,9.53-22.21,11.07-24.74,33-46,4.21-2.81,12.2-8.82,17-11,3.81-1.68,7.35-3.95,12-6,2.42-1.07,9.44-4.03,12-5,7.1-2.71,6.83-3,15-5,2.63-.65,11.63-2.53,15-3,5.03-.7,11.54-1.45,21-1,51.39-1.31,95.99,22.39,116,61,1.79,3.46,6.48,17.33,8,23Z"/>
  <path class="cls-4" fill="#4f4f4f" d="M1388.25,310.02c9.57,18.95,15.82,38.74,19,59-5.16-10.75-11.03-21.49-14-27-13.5-24.36-24.49-36.13-38-52-3.63-4.27-7.8-8.37-11-12-11.43-12.98-21.69-19.76-33-31-4.06-4.03-9.18-8.7-13-12-15.52-13.39-24.85-19.98-42-31-5.46-3.57-7.6-5-11-7-1.77-1.16-2.88-2.01-5-3-2.43-1.34-7.72-4.81-10-6-2.43-1.34-3.16-1.36-5-3-2.44-1.6-2.98-1.22-9-5-14-7.61-20.27-9.92-36-17-4.76-2-8.24-3.29-15-6-4.64-2.02-10.33-3.93-15-6-4.89-2.17-8.84-2.84-14-5-1.03-.43-7.98-2.53-9-3-5.33-1.27-4.67-1.14-10-3-3.21-1.01-7.81-1.93-11-3-5.09-1.71-7.48-2.05-13-4-1.59-.57-10.38-2.51-12-3-6.95-2.12-2.11-.97-11-3-1.64-.38-10.37-2.59-12-3-10.28-2.62-1.18-.14-12-3-1.76-.47-5.43-1.11-10-2-9.31-1.83-8.36-1.66-16-3-4.81-.72-5.91-1.15-11-2-5.02-.77-11.9-1.68-15-2-19.91-2.09-18.19-1.89-38-3-6-.01-18.5-.97-27.54-1.54-20.81-1.61-37.89-1.98-61.46-.46-9.65.51-18.63,1.71-36.61,3.68-13.36,1.77-21.01,2.18-33.39,4.32-8.85,1.53-16.22,1.59-29,4-1.91.36-6.63,1.39-8.8,1.86-7.96,1.76-12.78,2.67-23.2,5.14-1.8.42-6.99,1.44-9.07,2.04-8.14,2.35-4.93,1.19-14.93,3.96-.63.17-8.5,1.68-9.34,1.88-6.57,1.59-10.61,2.31-15.66,4.12-7.68,2.74-21.03,5.94-28,9-4.43,1.52-6,2.33-11.24,4.34-27.18,11.89-53.06,19.6-81.76,36.66-4.81,2.33-7.91,4.52-13,7-14.06,8.77-27.66,19.94-41,29-46.13,31.32-82.9,67.62-114,114-8,11.93-19.38,28.27-26,44-3.62,6-7.67,14.43-11,20-.43-4.1,3.14-18.34,4-24,2.15-10.3,3.76-17,8-28,8.62-22.39,19.72-45.53,30-66,3.03-6.04,4.59-9.9,7-14,44.69-75.9,97.58-130.6,168-179,22.91-15.75,45.69-28.3,73-39,2.72-1.07,8.26-3.99,11-5,3.8-1.54,6.4-2.67,11-4,13.05-5.4,26.32-11.06,40-16,7.16-1.83,7.66-1.67,13.83-3.8,1.17-.64,7.16-1.79,8.17-2.2,8.11-1.83,8.88-1.96,15.96-3.93,1.63-.64,11.45-2.5,13.04-3.07,9.26-2.2,10.13-2,19-4,1.84-.6,7.87-1.4,10-2,5.06-.8,7.93-1.6,14-2,9.19-1.13,9.39-.95,16-2,5.53-.4,6.67-1,10-1,.84-.27,9.16-.74,10-1,12,0,13-1,25-1,16.85-1.04,23.54-1.08,40.5.18,12.36-.27,8.6.36,22.5.82,9.93,1.86,21.59,2.72,24,3,11.67,1.32,9.73.72,18,2,4.43.97,8.64,1.8,14,3,2.13.6,9.09,1.62,11,2,12.54,2.5,6.32.89,17,3,5.85,1.15,9.93,2.13,14.37,3.24,7.26,1.37,10.65,2.05,18.32,4.27,56.26,19.22,99.43,39.82,146.31,67.49,5.25,3.42,5.53,3.57,8.33,6.06,19.99,13.35,33.06,21.94,48.67,36.94,4.66,4.48,8.53,8.17,12,11,19.46,15.9,28.95,26.12,48,48,1.05,1.21,3.1,3.35,4.68,5.12,2.43,2.7,10.11,11.83,12.32,14.88,22.1,30.51,41.25,60.87,60,98Z"/>
  <path class="cls-4" fill="#4f4f4f" d="M1410.25,643.02c-1.95,25.11-3.6,34.37-8,53-4.25,15.55-5.79,19.3-11,33-9.43,24.77-20.45,49.1-35,73-43.06,70.74-95.92,131.47-164,177-51.19,34.23-109.76,56.67-176,76-13.51,3.94-29.65,6.56-44,9-63.46,10.77-118.37,9.17-185-1-8.65-1.32-22.28-4.28-32-7-20.79-5.83-42.32-11.46-63-19-88.6-32.32-177.48-95.41-229-165-9.1-12.29-20.62-24.02-29-37-16.13-24.97-28.22-46.07-40-73-3.3-7.54-9.23-20.43-13-29-2.57-5.84-9-24.98-12-36,4.92,7.25,13.08,20.75,15,24,5.58,9.03,11.35,18.51,15,24,18.51,27.87,40.67,51.88,64,75,57.06,56.53,145.7,95.47,233,122,28.77,8.74,48.53,11,85,17,5.08,1,17.67,2,21,2,21.93,2.38,35.13,2.64,56,0,5.52-.7,18.59-1.96,41-11,10.07-4.07,20.22-9.11,30-16,8.88-6.27,19.28-12.94,24-27,5.75-17.16-9.51-37.18-18-47-2-2.34-6-4.67-8-7-11.75-8.01-15.1-9.93-29-16-2.65-1.16-10.73-4.4-17-6-7.08-1.34-11.67-2.67-17-3-40.71-11.78-88.75-9.01-91.76-55.69,3.13-20.14,29.34-39.61,29.76-47.31.21-3.95,1.48-6.26-2-12-4.62-3.75-5.9-5.28-10-7-12.81-5.38-28.62-5.53-45-8-6.67,0-29.34-3-36-3-14.09-.04-24.04-.98-34-10-1.54-1.39-7.7-14.97-8-17-1.41-9.36-2.91-10.73-6-19-3.83-10.25-17.24-15.07-28-23,16.19.89,52.66,14.72,58,21,4.98,5.86,6.11,15.16,14,17,13.09,6.7,54.2,2.15,71,4,36.94,4.07,58.25,2.39,86,19,5.87,3.51,15.47,8.81,18,20,.49,8.01-3.54,15.97-6,20-7.01,11.46-15.27,18.22-9,32,5.92,6.43,11.66,9.21,21,13,5.66,1,10.33,2,15,2,17.56,1.35,26.58.42,39,0,30.26-1.03,52.15,1.34,74,5,7.33.33,15.67,1.66,23,2,10.41,2.45,17.77,3.32,27,6,5.65,1.64,13.96,3.52,19,6,28.92,14.24,38.25,23.25,72,38,5.8,2.59,30.72,7.1,35,7,12.74.26,18.59-.3,32-2,12.66-1.17,18.08-3.34,31-6,14.43-4.19,23.78-8.14,36-15,13.16-7.4,24.54-18.54,35-29,18.14-18.16,32.49-36.11,47-58,7.12-10.75,12.69-20.33,18-32,2.65-5.83,6.28-15.2,10-24,4.18-9.81,7.68-19.28,11-29Z"/>
  <path class="cls-4" fill="#4f4f4f" d="M650.25,516.02c5.91,17.65,6.58,43.48-22,70,7.44-35.19-19.91-55.37-43-54-17.29,1.02-21.6,2.19-35,16-6.49,11.67-9.85,17.42-6,32,3.06,11.59,14.94,25.75,30,28-5.93,1.6-22.07-1.2-28-2-7.26-1.46-17.43-4.14-22-6-10.21-4.16-16.54-11.87-21-16-5.85-5.43-8.49-11.19-11-17-12.85-29.77,3.37-54.51,21-71,6.66-6.23,21.07-13.35,28-16,10.98-4.2,21.36-6.98,43-7,31.2,4.2,55.58,11.86,66,43Z"/>
</svg>